<svg id="svg" version="1.1" xmlns="http://www.w3.org/2000/svg" xmlns:xlink="http://www.w3.org/1999/xlink" width="400" height="400" viewBox="0, 0, 400,400"><g id="svgg"><path id="path0" d="M100.781 84.109 C 85.246 85.977,75.442 96.572,75.503 111.426 C 75.581 130.567,93.380 142.596,113.921 137.389 C 140.149 130.740,141.656 93.926,116.042 85.555 C 112.207 84.302,104.918 83.611,100.781 84.109 M255.331 156.650 C 237.554 157.845,224.214 165.662,213.852 180.957 L 212.793 182.520 212.743 171.338 L 212.692 160.156 186.412 160.156 L 160.132 160.156 160.291 161.084 C 160.482 162.206,160.454 299.128,160.260 310.400 L 160.123 318.359 186.404 318.359 L 212.685 318.359 212.747 271.436 C 212.819 218.216,212.699 221.773,214.583 217.014 C 219.256 205.213,229.515 197.989,241.602 197.992 C 255.393 197.995,264.150 205.904,267.074 220.996 C 268.103 226.310,268.045 223.390,268.112 272.705 L 268.174 318.359 294.438 318.359 L 320.703 318.359 320.701 271.045 C 320.699 217.484,320.698 217.412,319.136 208.301 C 313.195 173.648,289.371 154.362,255.331 156.650 M78.516 239.258 L 78.516 318.359 104.785 318.359 L 131.055 318.359 131.055 239.258 L 131.055 160.156 104.785 160.156 L 78.516 160.156 78.516 239.258 " stroke="none" fill="#fbfbfb" fill-rule="evenodd"></path><path id="path1" d="M45.605 24.503 C 35.316 26.382,27.585 33.395,24.834 43.345 L 24.316 45.215 24.316 200.000 L 24.316 354.785 24.834 356.655 C 27.388 365.892,34.102 372.496,43.555 375.072 L 45.801 375.684 200.000 375.684 L 354.199 375.684 356.445 375.072 C 365.898 372.496,372.612 365.892,375.166 356.655 L 375.684 354.785 375.684 200.000 L 375.684 45.215 375.166 43.345 C 372.612 34.108,365.898 27.504,356.445 24.928 L 354.199 24.316 200.586 24.285 C 76.603 24.259,46.709 24.301,45.605 24.503 M110.027 84.082 C 124.866 86.027,134.462 96.762,134.471 111.426 C 134.478 125.482,125.321 135.765,110.616 138.213 C 93.458 141.069,78.294 131.549,75.705 116.296 C 72.323 96.374,88.435 81.252,110.027 84.082 M266.895 156.660 C 295.849 159.025,315.050 178.801,319.721 211.072 C 320.818 218.647,320.769 216.116,320.844 269.385 L 320.913 318.555 294.445 318.555 L 267.977 318.555 267.919 272.510 L 267.861 226.465 267.417 223.745 C 264.921 208.462,258.543 200.648,246.804 198.493 C 231.516 195.686,216.429 206.119,213.427 221.574 L 213.008 223.730 212.945 271.143 L 212.881 318.555 186.539 318.555 L 160.197 318.555 160.225 239.356 L 160.254 160.156 186.571 160.156 L 212.887 160.156 212.938 171.114 L 212.988 182.071 214.294 180.147 C 226.301 162.459,243.558 154.754,266.895 156.660 M131.201 239.307 L 131.250 318.555 104.785 318.555 L 78.320 318.555 78.320 239.257 L 78.320 159.960 104.736 160.009 L 131.152 160.059 131.201 239.307 " stroke="none" fill="#04649c" fill-rule="evenodd"></path><path id="path2" d="M103.857 138.620 C 104.314 138.661,105.061 138.661,105.518 138.620 C 105.974 138.578,105.601 138.545,104.688 138.545 C 103.774 138.545,103.401 138.578,103.857 138.620 M78.418 239.258 L 78.418 318.457 104.688 318.458 L 130.957 318.459 104.737 318.409 L 78.516 318.358 78.467 239.208 L 78.417 160.059 78.418 239.258 M212.787 171.191 C 212.787 177.314,212.811 179.791,212.842 176.695 C 212.872 173.599,212.872 168.589,212.842 165.562 C 212.811 162.535,212.787 165.068,212.787 171.191 M160.219 163.867 C 160.219 164.565,160.254 164.851,160.298 164.502 C 160.341 164.153,160.341 163.582,160.298 163.232 C 160.254 162.883,160.219 163.169,160.219 163.867 M160.446 210.938 C 160.446 225.278,160.470 231.145,160.498 223.975 C 160.526 216.804,160.526 205.071,160.498 197.900 C 160.470 190.730,160.446 196.597,160.446 210.938 M320.752 272.411 L 320.703 318.358 294.385 318.408 L 268.066 318.458 294.391 318.507 C 315.306 318.545,320.734 318.505,320.808 318.311 C 320.859 318.176,320.878 297.456,320.850 272.266 L 320.800 226.465 320.752 272.411 M212.744 273.388 L 212.695 318.358 186.377 318.408 L 160.059 318.458 186.383 318.507 C 207.299 318.545,212.727 318.505,212.800 318.311 C 212.851 318.176,212.870 297.896,212.843 273.242 L 212.792 228.418 212.744 273.388 M268.014 230.664 C 268.014 231.040,268.054 231.194,268.103 231.006 C 268.153 230.818,268.153 230.510,268.103 230.322 C 268.054 230.134,268.014 230.288,268.014 230.664 M160.244 293.555 C 160.244 297.046,160.270 298.474,160.302 296.729 C 160.335 294.983,160.335 292.126,160.302 290.381 C 160.270 288.635,160.244 290.063,160.244 293.555 " stroke="none" fill="#64b4cc" fill-rule="evenodd"></path><path id="path3" d="M75.265 111.230 C 75.264 112.197,75.297 112.617,75.338 112.164 C 75.379 111.711,75.379 110.920,75.339 110.406 C 75.299 109.893,75.265 110.264,75.265 111.230 M126.843 130.322 L 126.270 130.957 126.904 130.383 C 127.496 129.849,127.629 129.688,127.478 129.688 C 127.444 129.688,127.159 129.973,126.843 130.322 M102.197 138.611 C 102.385 138.660,102.693 138.660,102.881 138.611 C 103.069 138.562,102.915 138.522,102.539 138.522 C 102.163 138.522,102.009 138.562,102.197 138.611 M104.687 160.107 L 131.054 160.158 131.104 239.356 L 131.153 318.555 131.153 239.307 L 131.152 160.059 104.736 160.058 L 78.320 160.056 104.687 160.107 M160.229 166.992 C 160.229 168.120,160.261 168.582,160.300 168.018 C 160.340 167.454,160.340 166.531,160.300 165.967 C 160.261 165.403,160.229 165.864,160.229 166.992 M219.812 173.096 L 219.238 173.730 219.873 173.157 C 220.465 172.622,220.598 172.461,220.447 172.461 C 220.413 172.461,220.127 172.747,219.812 173.096 M221.770 206.104 L 220.801 207.129 221.826 206.160 C 222.779 205.259,222.941 205.078,222.795 205.078 C 222.764 205.078,222.303 205.540,221.770 206.104 M320.769 225.195 C 320.769 226.001,320.803 226.331,320.845 225.928 C 320.888 225.525,320.888 224.866,320.845 224.463 C 320.803 224.060,320.769 224.390,320.769 225.195 M268.065 274.902 C 268.065 298.965,268.087 308.780,268.115 296.713 C 268.143 284.646,268.143 264.959,268.115 252.963 C 268.087 240.967,268.065 250.840,268.065 274.902 M160.244 280.371 C 160.244 284.238,160.270 285.848,160.302 283.948 C 160.334 282.048,160.334 278.884,160.303 276.917 C 160.271 274.950,160.244 276.504,160.244 280.371 " stroke="none" fill="#048cb4" fill-rule="evenodd"></path><path id="path4" d="M104.248 83.932 C 104.705 83.973,105.452 83.973,105.908 83.932 C 106.365 83.891,105.991 83.857,105.078 83.857 C 104.165 83.857,103.792 83.891,104.248 83.932 M126.172 91.467 C 126.172 91.501,126.458 91.787,126.807 92.102 L 127.441 92.676 126.868 92.041 C 126.333 91.449,126.172 91.316,126.172 91.467 M134.420 110.547 C 134.420 110.923,134.461 111.077,134.510 110.889 C 134.559 110.701,134.559 110.393,134.510 110.205 C 134.461 110.017,134.420 110.171,134.420 110.547 M134.428 112.305 C 134.428 112.788,134.466 112.986,134.513 112.744 C 134.559 112.502,134.559 112.107,134.513 111.865 C 134.466 111.624,134.428 111.821,134.428 112.305 M256.494 156.580 C 256.682 156.629,256.990 156.629,257.178 156.580 C 257.366 156.531,257.212 156.491,256.836 156.491 C 256.460 156.491,256.306 156.531,256.494 156.580 M263.330 156.580 C 263.518 156.629,263.826 156.629,264.014 156.580 C 264.202 156.531,264.048 156.491,263.672 156.491 C 263.296 156.491,263.142 156.531,263.330 156.580 M160.212 161.816 C 160.214 162.354,160.252 162.550,160.296 162.253 C 160.341 161.956,160.340 161.517,160.294 161.277 C 160.247 161.036,160.211 161.279,160.212 161.816 M221.576 171.338 L 220.410 172.559 221.631 171.393 C 222.302 170.752,222.852 170.202,222.852 170.172 C 222.852 170.028,222.659 170.204,221.576 171.338 M301.953 172.363 C 302.645 173.062,303.255 173.633,303.309 173.633 C 303.363 173.633,302.840 173.062,302.148 172.363 C 301.456 171.665,300.846 171.094,300.793 171.094 C 300.739 171.094,301.261 171.665,301.953 172.363 M160.437 179.883 C 160.437 182.729,160.464 183.894,160.498 182.471 C 160.531 181.047,160.531 178.718,160.498 177.295 C 160.464 175.872,160.437 177.036,160.437 179.883 M240.967 197.993 C 241.316 198.036,241.887 198.036,242.236 197.993 C 242.585 197.950,242.300 197.914,241.602 197.914 C 240.903 197.914,240.618 197.950,240.967 197.993 M320.553 221.875 C 320.553 222.251,320.593 222.405,320.642 222.217 C 320.692 222.029,320.692 221.721,320.642 221.533 C 320.593 221.345,320.553 221.499,320.553 221.875 M212.749 227.734 C 212.749 228.218,212.787 228.416,212.833 228.174 C 212.880 227.932,212.880 227.537,212.833 227.295 C 212.787 227.053,212.749 227.251,212.749 227.734 M160.443 247.168 C 160.443 252.861,160.467 255.162,160.498 252.281 C 160.528 249.400,160.528 244.742,160.498 241.930 C 160.467 239.117,160.442 241.475,160.443 247.168 M160.243 305.566 C 160.243 308.789,160.269 310.135,160.302 308.557 C 160.335 306.979,160.335 304.342,160.302 302.698 C 160.270 301.053,160.243 302.344,160.243 305.566 " stroke="none" fill="#8cc4dc" fill-rule="evenodd"></path></g></svg>