<?xml version="1.0" standalone="no"?>
<!DOCTYPE svg PUBLIC "-//W3C//DTD SVG 20010904//EN"
 "http://www.w3.org/TR/2001/REC-SVG-20010904/DTD/svg10.dtd">
<svg version="1.0" xmlns="http://www.w3.org/2000/svg"
 width="1448.000000pt" height="1108.000000pt" viewBox="0 0 1448.000000 1108.000000"
 preserveAspectRatio="xMidYMid meet">

<g transform="translate(0.000000,1108.000000) scale(0.100000,-0.100000)"
fill="#000000" stroke="none">
<path d="M0 5540 l0 -5540 7240 0 7240 0 0 5540 c0 5533 0 5540 -20 5540 -20
0 -20 -7 -20 -500 l0 -500 -7200 0 -7200 0 0 500 c0 493 0 500 -20 500 -20 0
-20 -7 -20 -5540z m2240 4253 c0 -29 3 -34 12 -25 17 17 58 15 80 -5 24 -21
24 -84 0 -106 -12 -11 -34 -16 -70 -15 l-52 1 0 87 c0 48 3 90 7 93 15 15 23
5 23 -30z m2110 0 c0 -29 3 -34 12 -25 19 19 63 14 83 -8 23 -26 24 -74 0
-100 -14 -15 -29 -19 -71 -18 l-54 2 0 86 c0 48 3 90 7 93 15 15 23 5 23 -30z
m558 5 c2 -20 7 -24 26 -21 13 3 33 0 45 -6 18 -10 21 -21 21 -71 0 -46 -3
-60 -14 -60 -11 0 -16 15 -18 53 -3 48 -5 52 -28 52 -23 0 -25 -4 -28 -52 -2
-38 -7 -53 -18 -53 -11 0 -14 19 -14 96 0 72 3 95 13 92 6 -3 13 -16 15 -30z
m162 17 c0 -8 -6 -15 -14 -15 -17 0 -28 14 -19 24 12 12 33 6 33 -9z m1428
-82 l3 -89 -54 -2 c-43 -1 -58 3 -72 18 -24 26 -23 74 0 100 20 22 64 27 83 8
9 -9 12 -4 12 26 0 26 4 36 13 34 8 -3 13 -34 15 -95z m4872 82 c0 -8 -9 -15
-20 -15 -11 0 -20 7 -20 15 0 8 9 15 20 15 11 0 20 -7 20 -15z m153 0 c1 -5
-6 -11 -15 -13 -11 -2 -18 3 -18 13 0 17 30 18 33 0z m-5479 -5 c14 -5 26 -16
26 -25 0 -17 -25 -21 -35 -5 -11 18 -45 11 -45 -9 0 -13 11 -23 35 -31 47 -15
62 -43 40 -76 -25 -39 -105 -29 -105 13 0 18 27 16 34 -2 7 -18 30 -20 44 -2
15 17 2 34 -31 42 -55 14 -70 76 -23 95 28 12 31 12 60 0z m3930 -12 c13 -21
0 -36 -16 -20 -7 7 -18 12 -25 12 -22 0 -14 -25 17 -55 23 -22 33 -26 42 -17
7 7 18 12 26 12 12 0 12 -4 -1 -24 -14 -21 -14 -25 6 -45 l21 -21 -21 0 c-12
0 -25 5 -28 10 -4 7 -12 7 -25 0 -69 -37 -144 26 -92 78 9 9 16 28 14 41 -7
45 57 68 82 29z m276 7 c56 -29 60 -113 8 -149 -80 -57 -179 42 -122 122 28
41 69 50 114 27z m2239 0 c33 -17 48 -45 25 -45 -8 0 -22 7 -30 15 -20 20 -53
19 -76 -2 -52 -47 9 -137 68 -98 13 8 31 15 40 15 15 0 14 -4 -6 -25 -32 -34
-91 -35 -125 0 -43 42 -27 123 29 145 31 13 44 12 75 -5z m-11689 -30 c0 -34
1 -35 40 -35 39 0 40 1 40 35 0 24 5 35 15 35 12 0 15 -16 15 -85 0 -67 -3
-85 -14 -85 -10 0 -16 13 -18 38 -3 35 -5 37 -40 40 l-38 3 0 -40 c0 -30 -4
-41 -15 -41 -12 0 -15 16 -15 85 0 69 3 85 15 85 10 0 15 -11 15 -35z m1357
-50 c28 -79 29 -85 11 -85 -10 0 -18 7 -18 15 0 11 -11 15 -40 15 -27 0 -43
-5 -46 -15 -5 -13 -34 -22 -34 -11 0 2 11 35 25 72 14 38 28 75 30 82 2 6 13
12 23 12 15 0 26 -18 49 -85z m583 70 c0 -8 7 -15 15 -15 8 0 15 -7 15 -15 0
-8 -7 -15 -15 -15 -11 0 -15 -11 -15 -40 0 -27 5 -43 15 -46 25 -10 17 -26
-12 -22 -26 3 -28 7 -31 53 -2 27 -9 56 -15 64 -9 11 -9 15 1 18 6 3 12 11 12
19 0 8 7 14 15 14 8 0 15 -7 15 -15z m150 -50 c0 -54 3 -66 20 -75 14 -8 26
-8 40 0 17 9 20 21 20 75 0 51 3 65 15 65 12 0 15 -14 15 -65 0 -75 -20 -105
-70 -105 -50 0 -70 30 -70 105 0 51 3 65 15 65 12 0 15 -14 15 -65z m858 5
c15 -33 29 -60 33 -60 3 0 17 27 32 60 16 37 32 60 41 60 13 0 16 -14 16 -85
0 -69 -3 -85 -15 -85 -11 0 -15 13 -16 53 l-1 52 -24 -52 c-13 -29 -28 -53
-34 -53 -6 0 -22 24 -35 53 l-24 52 0 -52 c-1 -40 -5 -53 -16 -53 -12 0 -15
16 -15 85 0 71 3 85 16 85 10 0 26 -23 42 -60z m2392 45 c0 -8 9 -15 20 -15
11 0 20 -5 20 -11 0 -6 -9 -13 -20 -16 -16 -4 -20 -14 -20 -43 0 -30 5 -40 20
-45 11 -3 20 -11 20 -16 0 -14 -46 -11 -58 4 -11 14 -22 111 -15 138 6 23 33
25 33 4z m740 0 c0 -8 9 -15 20 -15 11 0 20 -5 20 -11 0 -6 -9 -13 -20 -16
-15 -4 -20 -14 -20 -39 0 -23 6 -38 20 -46 11 -7 20 -16 20 -20 0 -13 -48 -9
-56 4 -12 18 -23 114 -17 138 6 23 33 27 33 5z m238 3 c17 -17 15 -54 -4 -73
-14 -14 -15 -20 -3 -43 7 -15 15 -30 17 -34 2 -5 -4 -8 -13 -8 -8 0 -25 16
-36 35 -12 19 -25 35 -30 35 -5 0 -9 -16 -9 -35 0 -24 -5 -35 -15 -35 -12 0
-15 16 -15 85 l0 85 48 0 c26 0 53 -5 60 -12z m1972 2 c0 -5 -16 -10 -35 -10
-31 0 -35 -3 -35 -25 0 -21 5 -25 30 -25 17 0 30 -4 30 -10 0 -5 -13 -10 -30
-10 -27 0 -30 -3 -30 -30 0 -28 3 -30 35 -30 19 0 35 -4 35 -10 0 -5 -22 -10
-50 -10 l-50 0 0 85 0 85 50 0 c28 0 50 -4 50 -10z m520 -5 c0 -8 9 -15 20
-15 11 0 20 -5 20 -11 0 -6 -9 -13 -20 -16 -16 -4 -20 -14 -20 -43 0 -30 5
-40 20 -45 11 -3 20 -11 20 -16 0 -13 -48 -11 -56 3 -12 18 -23 114 -17 138 6
23 33 27 33 5z m1340 0 c0 -8 7 -15 15 -15 8 0 15 -7 15 -15 0 -8 -7 -15 -15
-15 -11 0 -15 -11 -15 -40 0 -27 5 -43 15 -46 8 -4 15 -10 15 -15 0 -14 -36
-11 -48 4 -11 14 -22 111 -15 138 6 23 33 25 33 4z m480 0 c0 -8 9 -15 20 -15
11 0 20 -5 20 -11 0 -6 -9 -13 -20 -16 -15 -4 -20 -14 -20 -39 0 -23 6 -38 20
-46 11 -7 20 -16 20 -20 0 -13 -48 -9 -56 4 -12 18 -23 114 -17 138 6 23 33
27 33 5z m1490 0 c0 -8 7 -15 15 -15 8 0 15 -7 15 -15 0 -8 -7 -15 -15 -15
-11 0 -15 -11 -15 -40 0 -27 5 -43 15 -46 25 -10 17 -26 -12 -22 -26 3 -28 7
-31 53 -2 27 -9 56 -15 64 -9 11 -9 15 1 18 6 3 12 11 12 19 0 8 7 14 15 14 8
0 15 -7 15 -15z m410 0 c0 -8 7 -15 15 -15 8 0 15 -7 15 -15 0 -8 -7 -15 -15
-15 -11 0 -15 -11 -15 -40 0 -27 5 -43 15 -46 21 -8 19 -24 -3 -24 -29 0 -42
21 -42 66 0 24 -4 45 -9 48 -12 8 11 56 27 56 6 0 12 -7 12 -15z m150 -44 c0
-41 5 -65 16 -75 18 -19 20 -19 45 -6 16 9 19 22 19 75 0 51 3 65 15 65 21 0
21 -117 -1 -148 -20 -29 -76 -30 -104 -2 -26 26 -30 150 -5 150 12 0 15 -13
15 -59z m-12425 4 c30 -30 31 -54 4 -89 -42 -54 -119 -25 -119 45 0 66 68 92
115 44z m170 15 c6 0 23 2 38 6 44 10 67 -17 67 -83 0 -40 -4 -53 -14 -53 -11
0 -16 15 -18 53 -3 50 -4 52 -33 52 -29 0 -30 -2 -33 -52 -2 -37 -7 -53 -17
-53 -10 0 -15 16 -17 53 -3 46 -6 52 -27 55 -30 5 -41 -12 -41 -65 0 -32 -4
-43 -15 -43 -12 0 -15 14 -15 63 0 35 2 66 5 69 5 5 55 4 120 -2z m245 -10
c11 -11 20 -29 20 -40 0 -17 -7 -20 -50 -20 -37 0 -50 -4 -50 -14 0 -21 35
-29 59 -14 25 15 39 4 21 -17 -21 -25 -75 -19 -100 12 -53 67 40 153 100 93z
m1018 4 c27 -19 30 -78 5 -106 -19 -21 -71 -24 -96 -5 -28 21 -32 68 -7 100
25 31 63 36 98 11z m82 -33 c0 -57 17 -79 49 -61 17 9 21 20 21 60 0 38 4 50
15 50 12 0 15 -14 15 -69 l0 -68 -49 -2 c-66 -1 -81 15 -81 85 0 41 4 54 15
54 11 0 15 -12 15 -49z m556 28 l19 -21 -44 7 c-34 6 -42 4 -39 -6 2 -7 18
-17 36 -21 34 -9 50 -41 32 -63 -16 -20 -74 -19 -90 0 -18 22 -4 31 24 16 23
-13 46 -9 46 8 0 4 -18 15 -40 24 -27 10 -40 22 -40 34 0 45 63 59 96 22z
m893 -5 c34 -44 28 -54 -34 -54 -56 0 -67 -8 -40 -30 12 -10 21 -10 45 0 36
15 47 9 25 -14 -40 -39 -115 -4 -115 54 0 65 79 94 119 44z m148 14 c8 -6 19
-6 32 1 54 29 91 -4 91 -81 0 -36 -4 -48 -15 -48 -11 0 -15 11 -15 43 0 53
-11 70 -41 65 -21 -3 -24 -9 -27 -55 -2 -37 -7 -53 -17 -53 -10 0 -15 16 -17
53 -3 46 -6 52 -27 55 -30 5 -41 -12 -41 -65 0 -32 -4 -43 -15 -43 -12 0 -15
14 -15 68 l0 69 48 1 c26 0 52 -4 59 -10z m433 -8 c11 -11 20 -29 20 -40 0
-18 -7 -20 -55 -20 -44 0 -53 -3 -49 -15 8 -21 40 -28 63 -13 25 15 39 4 21
-17 -15 -18 -70 -20 -93 -2 -9 6 -19 26 -23 42 -13 66 69 112 116 65z m120 5
c0 -7 -9 -15 -20 -18 -17 -4 -20 -14 -20 -56 0 -39 -4 -51 -15 -51 -12 0 -15
14 -15 68 l0 68 35 1 c22 1 35 -4 35 -12z m108 3 c21 -21 13 -29 -23 -22 -46
8 -47 -11 -1 -30 42 -17 50 -30 36 -56 -13 -24 -71 -28 -90 -5 -18 22 -4 31
24 16 30 -16 53 -6 35 15 -6 8 -19 14 -28 14 -21 0 -41 19 -41 40 0 24 21 40
50 40 14 0 31 -5 38 -12z m242 -58 c0 -56 -3 -70 -15 -70 -12 0 -15 14 -15 70
0 56 3 70 15 70 12 0 15 -14 15 -70z m163 38 c38 -51 0 -114 -65 -105 l-38 5
0 -40 c0 -27 -4 -38 -12 -36 -13 5 -24 167 -14 193 2 7 25 11 56 11 45 -1 56
-5 73 -28z m997 -17 c0 -57 17 -79 49 -61 17 9 21 20 21 60 0 38 4 50 15 50
12 0 15 -14 15 -69 l0 -68 -49 -2 c-66 -1 -81 15 -81 85 0 41 4 54 15 54 11 0
15 -12 15 -49z m410 29 c11 -11 20 -29 20 -40 0 -17 -7 -20 -50 -20 -37 0 -50
-4 -50 -14 0 -21 35 -29 59 -14 25 15 39 4 21 -17 -18 -22 -73 -19 -95 5 -10
11 -18 34 -18 50 0 62 70 93 113 50z m155 6 c26 -18 35 -126 11 -126 -12 0
-16 10 -16 43 0 53 -11 70 -41 65 -21 -3 -24 -9 -27 -55 -2 -38 -7 -53 -18
-53 -11 0 -14 15 -14 69 l0 68 44 1 c24 1 51 -5 61 -12z m473 -2 c12 -8 22
-26 22 -40 0 -22 -4 -24 -50 -24 -52 0 -61 -8 -34 -31 12 -10 20 -10 35 -1 10
7 26 12 35 12 16 0 15 -2 -1 -20 -22 -24 -72 -26 -97 -3 -24 22 -24 77 2 103
24 24 57 26 88 4z m142 1 c18 -21 5 -30 -24 -17 -23 10 -36 7 -36 -10 0 -4 16
-14 36 -23 30 -12 35 -19 32 -42 -3 -24 -8 -28 -39 -31 -25 -2 -42 3 -55 15
-16 17 -16 18 0 21 9 2 24 -2 32 -9 12 -10 17 -10 27 1 7 8 8 14 2 16 -59 23
-78 51 -55 79 16 20 64 19 80 0z m155 -10 c30 -30 31 -54 4 -89 -42 -54 -123
-23 -121 46 2 63 72 89 117 43z m75 -25 c0 -40 4 -51 21 -60 32 -18 49 4 49
61 0 37 4 49 15 49 12 0 15 -14 15 -69 l0 -68 -47 -1 c-65 -2 -83 16 -83 85 0
40 4 53 15 53 11 0 15 -12 15 -50z m210 35 c0 -7 -9 -15 -20 -18 -17 -4 -20
-14 -20 -56 0 -39 -4 -51 -15 -51 -12 0 -15 14 -15 68 l0 68 35 1 c22 1 35 -4
35 -12z m121 5 c23 -13 26 -40 4 -40 -8 0 -15 5 -15 10 0 16 -46 12 -60 -5
-15 -18 -6 -61 15 -69 8 -3 26 0 40 6 30 13 43 5 25 -17 -15 -18 -70 -20 -93
-2 -28 21 -32 68 -7 100 23 29 57 35 91 17z m159 -10 c11 -11 20 -29 20 -40 0
-18 -7 -20 -55 -20 -43 0 -53 -3 -49 -14 8 -21 31 -27 59 -14 30 13 43 5 25
-17 -15 -18 -70 -20 -93 -2 -9 6 -19 26 -23 42 -13 66 69 112 116 65z m136 3
c17 -17 17 -18 0 -21 -9 -2 -23 1 -29 7 -8 6 -18 6 -27 1 -18 -11 -15 -14 33
-33 38 -17 48 -42 25 -65 -17 -17 -73 -15 -88 3 -18 22 -4 31 24 16 23 -13 46
-9 46 8 0 4 -18 15 -40 24 -28 11 -40 21 -40 36 0 39 65 55 96 24z m884 -28
c7 -25 16 -48 21 -50 4 -3 15 17 24 45 10 30 23 50 31 50 10 0 13 -6 10 -17
-45 -139 -69 -154 -103 -65 -27 67 -28 82 -9 82 7 0 19 -20 26 -45z m220 25
c11 -11 20 -29 20 -40 0 -17 -7 -20 -50 -20 -37 0 -50 -4 -50 -14 0 -21 35
-29 59 -14 25 15 39 4 21 -17 -13 -16 -67 -20 -86 -7 -14 9 -34 47 -34 65 0 8
9 26 21 41 25 32 70 35 99 6z m152 9 c14 -8 18 -22 18 -69 0 -33 -4 -60 -10
-60 -5 0 -10 15 -10 33 0 60 -10 78 -39 75 -24 -3 -26 -7 -29 -55 -2 -38 -7
-53 -18 -53 -11 0 -14 15 -14 69 l0 69 42 0 c23 1 50 -4 60 -9z m236 -1 c21
-21 13 -29 -24 -22 -29 5 -36 4 -32 -7 3 -8 19 -18 36 -23 36 -10 46 -29 32
-57 -13 -23 -72 -26 -90 -4 -18 22 -4 31 24 16 25 -14 51 -7 40 10 -3 5 -21
16 -40 24 -53 22 -42 75 16 75 14 0 31 -5 38 -12z m592 0 c0 -9 3 -9 12 0 19
19 63 14 83 -8 24 -26 23 -74 -1 -101 -15 -17 -27 -20 -56 -16 l-38 5 0 -40
c0 -27 -4 -38 -12 -36 -9 3 -14 36 -16 106 -2 86 0 102 13 102 8 0 15 -5 15
-12z m170 0 c0 -9 3 -9 12 0 17 17 49 15 76 -4 16 -11 22 -25 22 -53 0 -51
-27 -76 -75 -68 l-35 6 0 -40 c0 -28 -4 -39 -12 -37 -9 3 -14 36 -16 106 -2
86 0 102 13 102 8 0 15 -5 15 -12z m248 -4 c27 -19 30 -78 5 -106 -19 -21 -71
-24 -96 -5 -28 21 -32 68 -7 100 25 31 63 36 98 11z m122 0 c0 -6 -9 -14 -20
-17 -17 -4 -20 -14 -20 -56 0 -39 -4 -51 -15 -51 -12 0 -15 14 -15 69 l0 69
35 -1 c20 -1 35 -6 35 -13z m150 -32 c0 -44 12 -72 31 -72 21 0 39 35 39 77 0
31 4 43 13 41 7 -3 13 -29 15 -70 l3 -65 -50 -1 c-66 -2 -81 14 -81 84 0 41 4
54 15 54 11 0 15 -12 15 -48z m243 31 c22 -21 25 -123 3 -123 -11 0 -16 15
-18 53 -3 50 -4 52 -33 52 -29 0 -30 -2 -33 -52 -2 -38 -7 -53 -18 -53 -11 0
-14 15 -14 68 l0 69 48 1 c30 0 53 -5 65 -15z m77 -53 c0 -56 -3 -70 -15 -70
-12 0 -15 14 -15 63 0 35 3 67 7 70 17 18 23 1 23 -63z m160 0 c0 -56 -3 -70
-15 -70 -12 0 -15 14 -15 70 0 56 3 70 15 70 12 0 15 -14 15 -70z m136 62 c13
-8 34 -46 34 -61 0 -7 -23 -11 -55 -11 -56 0 -67 -8 -40 -30 12 -10 21 -10 45
0 36 15 53 4 26 -16 -28 -20 -73 -17 -96 6 -42 42 -11 120 48 120 15 0 32 -4
38 -8z m150 -13 l19 -21 -44 7 c-34 6 -42 4 -39 -6 2 -7 18 -17 35 -21 35 -9
47 -31 33 -59 -13 -23 -72 -26 -90 -4 -18 22 -4 31 24 16 23 -13 46 -9 46 8 0
4 -18 15 -40 24 -27 10 -40 22 -40 34 0 45 63 59 96 22z m862 5 c27 -19 30
-78 5 -106 -19 -21 -71 -24 -96 -5 -28 21 -32 68 -7 100 25 31 63 36 98 11z
m165 -1 c23 -21 25 -123 2 -123 -11 0 -15 11 -15 43 0 53 -11 70 -41 65 -21
-3 -24 -9 -27 -55 -2 -38 -7 -53 -18 -53 -11 0 -14 15 -14 68 l0 69 48 1 c30
0 53 -5 65 -15z m235 5 c9 -9 12 -9 12 0 0 7 7 12 15 12 12 0 15 -14 15 -68
l0 -69 -52 -1 c-66 -1 -88 16 -88 69 0 28 6 42 22 53 27 19 59 21 76 4z m183
-7 c31 -25 16 -40 -19 -19 -35 21 -62 8 -62 -31 0 -41 24 -58 55 -41 29 16 43
7 25 -15 -17 -20 -69 -19 -92 2 -23 20 -24 80 -1 105 21 23 65 23 94 -1z m465
2 c20 -20 4 -29 -23 -14 -11 6 -25 6 -33 1 -18 -11 -15 -14 33 -33 38 -17 48
-42 25 -65 -17 -17 -73 -15 -88 3 -18 22 -4 31 24 16 23 -13 46 -9 46 8 0 4
-18 15 -40 24 -28 11 -40 21 -40 36 0 39 65 55 96 24z m-8316 -8 c0 -9 -30
-65 -35 -65 -5 0 -35 56 -35 65 0 3 16 5 35 5 19 0 35 -2 35 -5z m3024 -27
c-9 -18 -18 -35 -20 -36 -3 -4 -34 53 -34 63 0 3 16 5 35 5 l36 0 -17 -32z
m6016 -4623 l0 -4275 -7200 0 -7200 0 0 4275 0 4275 7200 0 7200 0 0 -4275z
m-5875 -4565 c-5 -8 -11 -8 -17 -2 -6 6 -7 16 -3 22 5 8 11 8 17 2 6 -6 7 -16
3 -22z m429 -1 c-16 -17 -16 -19 -1 -19 10 0 17 -4 17 -10 0 -5 -7 -10 -15
-10 -11 0 -15 -12 -15 -45 0 -60 -20 -58 -22 3 -2 71 1 86 19 99 24 18 37 4
17 -18z m-4164 11 c0 -5 -7 -10 -16 -10 -8 0 -12 5 -9 10 3 6 10 10 16 10 5 0
9 -4 9 -10z m190 -10 c0 -16 7 -20 30 -20 35 0 50 -23 50 -74 0 -54 -28 -48
-32 7 -2 35 -7 43 -25 45 -21 3 -23 -1 -23 -42 0 -34 -4 -46 -15 -46 -12 0
-15 15 -15 75 0 60 3 75 15 75 8 0 15 -9 15 -20z m464 4 c9 -8 16 -21 16 -27
0 -15 -28 -58 -48 -74 -13 -11 -11 -13 16 -13 18 0 32 -4 32 -10 0 -5 -22 -10
-50 -10 -27 0 -50 4 -50 8 0 4 16 22 35 41 35 32 45 64 24 76 -5 4 -18 0 -28
-9 -20 -18 -31 -20 -31 -7 0 16 31 41 50 41 10 0 26 -7 34 -16z m120 0 c18
-18 21 -85 6 -115 -12 -22 -59 -26 -78 -7 -7 7 -12 33 -12 59 0 51 18 79 50
79 10 0 26 -7 34 -16z m120 0 c9 -8 16 -20 16 -25 0 -19 -30 -68 -47 -78 -15
-9 -12 -10 15 -11 17 0 32 -4 32 -10 0 -5 -22 -10 -50 -10 -27 0 -50 4 -50 8
0 5 16 22 35 39 23 21 35 40 35 57 0 29 -27 37 -36 11 -7 -16 -34 -21 -34 -6
0 16 31 41 50 41 10 0 26 -7 34 -16z m116 1 c7 -8 10 -25 7 -37 -3 -11 -2 -30
4 -40 15 -28 -6 -58 -41 -58 -31 0 -72 31 -50 38 6 2 17 -1 23 -7 6 -6 19 -11
29 -11 25 0 23 36 -2 43 -11 3 -20 10 -20 16 0 6 9 11 20 11 23 0 27 28 5 36
-8 4 -22 1 -30 -6 -20 -17 -32 -5 -15 15 16 19 54 19 70 0z m1120 -5 c0 -16 7
-20 30 -20 35 0 50 -23 50 -74 0 -25 -4 -36 -15 -36 -11 0 -15 12 -15 45 0 41
-2 45 -25 45 -23 0 -25 -4 -25 -45 0 -33 -4 -45 -15 -45 -12 0 -15 15 -15 75
0 60 3 75 15 75 8 0 15 -9 15 -20z m1138 9 c-2 -6 -8 -10 -13 -10 -5 0 -11 4
-13 10 -2 6 4 11 13 11 9 0 15 -5 13 -11z m-3787 -9 c23 -13 25 -30 4 -30 -8
0 -15 5 -15 10 0 6 -14 10 -30 10 -39 0 -59 -37 -42 -75 12 -27 40 -32 74 -14
25 13 35 5 18 -16 -17 -20 -79 -19 -102 2 -23 20 -24 80 -1 105 18 20 64 24
94 8z m839 -5 c0 -8 7 -15 15 -15 8 0 15 -4 15 -10 0 -5 -7 -10 -15 -10 -10 0
-15 -11 -15 -35 0 -24 5 -35 15 -35 8 0 15 -4 15 -10 0 -5 -11 -10 -25 -10
-17 0 -26 7 -30 23 -5 26 -9 74 -7 100 2 21 32 23 32 2z m214 -4 c23 -25 23
-76 1 -101 -41 -45 -125 -12 -125 50 0 61 84 96 124 51z m694 7 c16 -16 15
-43 -3 -58 -13 -11 -13 -15 1 -41 13 -26 13 -29 -1 -29 -8 0 -21 11 -27 25 -6
14 -17 25 -25 25 -7 0 -13 -11 -13 -25 0 -14 -4 -25 -10 -25 -6 0 -10 30 -10
70 l0 70 38 0 c21 0 43 -5 50 -12z m192 -3 c0 -8 7 -15 15 -15 8 0 15 -4 15
-10 0 -5 -7 -10 -15 -10 -10 0 -15 -11 -15 -35 0 -24 5 -35 15 -35 8 0 15 -4
15 -10 0 -5 -11 -10 -25 -10 -17 0 -26 7 -30 23 -5 26 -9 74 -7 100 2 21 32
23 32 2z m665 5 c-3 -5 -13 -10 -21 -10 -11 0 -14 -14 -14 -60 0 -47 -3 -60
-15 -60 -12 0 -15 13 -15 60 0 47 -3 60 -15 60 -8 0 -15 5 -15 10 0 6 23 10
51 10 31 0 48 -4 44 -10z m399 4 c9 -3 16 -12 16 -20 0 -16 -16 -19 -25 -4 -9
15 -45 12 -45 -3 0 -7 15 -20 33 -28 26 -11 32 -20 32 -44 0 -27 -3 -30 -37
-33 -29 -2 -39 1 -48 17 -9 17 -8 21 5 21 8 0 15 -4 15 -10 0 -5 12 -10 26
-10 19 0 25 5 22 18 -2 9 -13 18 -25 20 -11 2 -28 11 -38 22 -33 37 15 75 69
54z m66 -9 c0 -8 7 -15 15 -15 8 0 15 -4 15 -10 0 -5 -7 -10 -15 -10 -10 0
-15 -11 -15 -35 0 -24 5 -35 15 -35 8 0 15 -5 15 -11 0 -6 -10 -9 -22 -7 -19
2 -24 10 -26 43 -2 22 -8 45 -14 52 -7 9 -7 13 1 13 6 0 11 7 11 15 0 8 5 15
10 15 6 0 10 -7 10 -15z m210 0 c0 -8 7 -15 15 -15 8 0 15 -4 15 -10 0 -5 -7
-10 -15 -10 -10 0 -15 -11 -15 -35 0 -24 5 -35 15 -35 8 0 15 -5 15 -11 0 -6
-10 -9 -22 -7 -19 2 -24 10 -26 43 -2 22 -9 44 -15 48 -9 6 -9 10 1 14 6 2 12
11 12 19 0 8 5 14 10 14 6 0 10 -7 10 -15z m252 -42 c3 -54 5 -58 28 -58 23 0
25 4 28 58 2 31 7 57 12 57 14 0 12 -114 -2 -128 -17 -17 -64 -15 -82 4 -22
21 -23 124 -1 124 10 0 15 -15 17 -57z m778 42 c0 -10 10 -15 29 -15 23 0 31
-6 43 -37 l15 -38 16 38 c9 20 21 37 28 37 6 0 9 -6 6 -12 -46 -117 -61 -148
-73 -148 -11 0 -11 5 -3 24 17 36 -16 125 -42 119 -24 -7 -27 -73 -4 -73 8 0
15 -4 15 -10 0 -5 -11 -10 -25 -10 -17 0 -26 7 -30 23 -5 26 -9 74 -7 100 2
21 32 23 32 2z m515 -37 l35 -53 0 53 c0 28 5 52 10 52 6 0 10 -30 10 -70 0
-85 -12 -90 -55 -22 l-30 47 -3 -47 c-5 -74 -22 -56 -22 22 0 39 4 70 10 70 5
0 25 -24 45 -52z m493 -15 c-3 -62 -5 -68 -26 -71 -23 -4 -52 13 -52 29 0 5 7
9 15 9 8 0 15 -4 15 -10 0 -5 7 -10 15 -10 12 0 15 13 15 60 0 35 4 60 10 60
7 0 10 -25 8 -67z m-5171 11 c15 -24 15 -29 2 -53 -29 -51 -109 -33 -109 24 0
56 76 76 107 29z m130 14 c17 -14 17 -59 0 -82 -10 -14 -23 -17 -45 -14 -28 4
-31 2 -34 -26 -6 -62 -23 -29 -26 50 l-3 81 47 1 c26 1 54 -4 61 -10z m63 -30
l13 -43 15 43 c9 23 22 42 29 42 9 0 7 -14 -8 -52 -12 -29 -26 -65 -31 -80 -6
-16 -16 -28 -24 -28 -10 0 -11 6 -4 25 7 19 5 38 -10 76 -24 59 -24 59 -7 59
8 0 20 -19 27 -42z m140 33 c0 -5 -7 -11 -15 -15 -10 -3 -15 -19 -15 -46 0
-29 -4 -40 -15 -40 -12 0 -15 13 -15 55 0 54 0 55 30 55 17 0 30 -4 30 -9z
m40 -46 c0 -30 -4 -55 -10 -55 -5 0 -10 25 -10 55 0 30 5 55 10 55 6 0 10 -25
10 -55z m140 -11 c0 -88 -35 -123 -91 -94 -20 11 -27 40 -9 40 6 0 10 -4 10
-10 0 -5 14 -10 30 -10 46 0 39 28 -7 32 -31 2 -39 8 -47 30 -6 18 -6 35 2 52
10 23 17 26 62 25 l50 -2 0 -63z m1150 20 c0 -41 2 -45 23 -42 18 2 23 10 25
46 2 28 8 42 18 42 10 0 14 -14 14 -55 l0 -55 -43 0 c-24 0 -48 5 -55 12 -18
18 -16 98 3 98 11 0 15 -12 15 -46z m280 -22 c0 -69 -16 -102 -50 -102 -22 0
-67 36 -58 46 4 4 14 1 22 -5 20 -17 60 -10 64 10 2 12 -4 15 -28 11 -39 -6
-60 12 -60 52 0 43 16 56 67 54 l43 -1 0 -65z m118 56 c7 -7 12 -26 12 -43 0
-38 -16 -55 -51 -55 -52 0 -77 54 -42 92 18 20 63 24 81 6z m92 3 c0 -5 -7
-11 -15 -15 -10 -3 -15 -19 -15 -46 0 -29 -4 -40 -15 -40 -12 0 -15 13 -15 55
0 54 0 55 30 55 17 0 30 -4 30 -9z m97 -6 c7 -21 -4 -32 -19 -17 -14 14 -38
16 -38 3 0 -5 14 -14 31 -20 41 -14 38 -54 -4 -59 -30 -4 -61 14 -51 30 4 6
10 6 17 -1 14 -14 47 -14 47 -1 0 6 -6 10 -14 10 -8 0 -24 8 -37 19 -20 16
-21 21 -10 35 17 21 70 21 78 1z m449 -9 c13 -22 14 -29 2 -53 -11 -23 -20
-28 -48 -28 -27 0 -38 6 -49 26 -13 24 -13 29 2 53 23 35 70 36 93 2z m384
-31 l0 -55 -44 0 c-50 0 -76 19 -76 55 0 36 26 55 76 55 l44 0 0 -55z m188 43
c17 -17 15 -73 -2 -87 -8 -7 -30 -11 -48 -9 -25 2 -35 9 -42 30 -15 43 6 78
47 78 18 0 38 -5 45 -12z m309 1 c15 -13 18 -99 4 -99 -6 0 -11 19 -13 43 -3
37 -6 42 -28 42 -22 0 -25 -5 -28 -42 -4 -62 -22 -53 -22 10 l0 54 37 1 c20 1
42 -3 50 -9z m63 -44 c0 -30 -4 -55 -10 -55 -5 0 -10 25 -10 55 0 30 5 55 10
55 6 0 10 -25 10 -55z m50 20 c14 -43 24 -44 36 -3 9 29 34 52 34 30 0 -23
-40 -102 -52 -102 -7 0 -23 25 -35 55 -16 42 -18 55 -8 55 7 0 19 -16 25 -35z
m178 23 c7 -7 12 -26 12 -43 0 -38 -16 -55 -51 -55 -49 0 -73 45 -49 91 12 22
68 27 88 7z m92 3 c0 -5 -7 -11 -15 -15 -10 -3 -15 -19 -15 -46 0 -29 -4 -40
-15 -40 -12 0 -15 13 -15 55 0 54 0 55 30 55 17 0 30 -4 30 -9z m95 -1 c10
-16 -5 -34 -18 -21 -13 13 -37 14 -37 2 0 -5 14 -14 31 -20 41 -14 38 -54 -4
-59 -30 -4 -61 14 -51 30 4 6 10 6 17 -1 14 -14 47 -14 47 -1 0 6 -6 10 -14
10 -8 0 -24 8 -37 19 -20 16 -21 21 -10 35 15 18 66 22 76 6z m45 -45 c0 -30
-4 -55 -10 -55 -5 0 -10 25 -10 55 0 30 5 55 10 55 6 0 10 -25 10 -55z m362
38 c22 -20 23 -51 1 -75 -32 -36 -103 -12 -103 35 0 49 64 75 102 40z m386 5
c17 -17 15 -73 -2 -87 -8 -7 -30 -11 -48 -9 -25 2 -35 9 -42 30 -15 43 6 78
47 78 18 0 38 -5 45 -12z m56 -34 l9 -39 11 40 c7 23 18 40 26 40 8 0 19 -17
26 -40 l11 -40 8 38 c7 36 21 55 32 44 9 -10 -28 -107 -42 -107 -7 0 -16 14
-20 30 -4 17 -10 30 -15 30 -5 0 -11 -13 -15 -30 -10 -44 -31 -37 -49 17 -19
56 -20 66 -4 61 7 -3 17 -22 22 -44z m396 26 c10 -19 8 -59 -5 -80 -9 -14 -68
-13 -83 2 -7 7 -12 26 -12 43 0 40 16 55 57 55 22 0 36 -6 43 -20z m90 10 c0
-4 -9 -10 -20 -13 -16 -4 -20 -14 -20 -46 0 -23 -4 -41 -10 -41 -5 0 -10 24
-10 53 0 53 1 54 30 55 17 0 30 -3 30 -8z m89 -4 c8 -9 8 -16 2 -20 -5 -4 -12
-2 -16 4 -8 13 -45 13 -45 0 0 -5 6 -10 14 -10 25 0 58 -34 51 -53 -9 -22 -73
-24 -82 -2 -3 9 -2 19 2 23 4 4 10 1 12 -5 5 -15 43 -18 43 -4 0 5 -13 14 -30
20 -28 9 -40 37 -23 54 12 12 60 7 72 -7z m119 2 c7 -7 12 -26 12 -43 0 -38
-16 -55 -51 -55 -49 0 -73 45 -49 91 12 22 68 27 88 7z m64 -30 l15 -43 13 43
c8 24 19 42 28 42 8 0 12 -6 9 -12 -41 -104 -63 -148 -74 -148 -10 0 -10 5 -1
24 8 20 7 34 -7 68 -9 24 -19 49 -22 56 -3 6 1 12 9 12 8 0 21 -19 30 -42z
m-4227 -60 c-4 -13 -11 -27 -16 -32 -15 -16 -20 0 -10 28 13 32 35 36 26 4z
m850 -5 c-8 -32 -13 -39 -21 -30 -10 9 5 57 17 57 7 0 9 -10 4 -27z"/>
<path d="M2252 9738 c-18 -18 -15 -42 7 -62 30 -27 63 -5 59 37 -2 26 -8 33
-28 35 -14 2 -31 -3 -38 -10z"/>
<path d="M4362 9738 c-18 -18 -15 -42 7 -62 30 -27 63 -5 59 37 -2 26 -8 33
-28 35 -14 2 -31 -3 -38 -10z"/>
<path d="M6394 9736 c-9 -24 0 -58 18 -70 14 -8 22 -6 40 11 19 19 20 26 10
48 -13 28 -59 35 -68 11z"/>
<path d="M9894 9705 c-7 -17 12 -45 30 -45 6 0 18 4 26 10 12 7 12 12 -4 29
-22 25 -44 27 -52 6z"/>
<path d="M10166 9771 c-27 -29 -18 -83 16 -99 50 -24 96 24 76 78 -17 44 -62
54 -92 21z"/>
<path d="M2098 9754 c-3 -11 -9 -27 -13 -36 -6 -15 -2 -18 19 -18 29 0 32 13
12 49 -12 21 -13 22 -18 5z"/>
<path d="M7040 9761 c0 -23 5 -31 18 -31 49 1 58 53 9 58 -24 3 -27 0 -27 -27z"/>
<path d="M977 9743 c-11 -11 -8 -58 5 -71 18 -18 36 -14 53 12 13 19 14 29 5
45 -10 20 -49 29 -63 14z"/>
<path d="M1407 9749 c-28 -16 -20 -29 18 -29 38 0 46 13 17 29 -11 6 -24 6
-35 0z"/>
<path d="M2410 9730 c-22 -42 11 -81 51 -59 15 8 19 19 17 42 -2 26 -8 33 -30
35 -19 2 -30 -3 -38 -18z"/>
<path d="M3947 9749 c-28 -16 -20 -29 18 -29 38 0 46 13 17 29 -11 6 -24 6
-35 0z"/>
<path d="M4527 9743 c-15 -15 -5 -23 28 -23 26 0 33 3 29 15 -6 15 -45 21 -57
8z"/>
<path d="M5140 9729 c-9 -16 -8 -26 5 -45 8 -13 22 -24 30 -24 8 0 22 11 30
24 21 32 5 66 -30 66 -14 0 -29 -8 -35 -21z"/>
<path d="M6577 9749 c-28 -16 -20 -29 18 -29 38 0 46 13 17 29 -11 6 -24 6
-35 0z"/>
<path d="M7207 9749 c-28 -16 -20 -29 18 -29 38 0 46 13 17 29 -11 6 -24 6
-35 0z"/>
<path d="M7487 9743 c-11 -11 -8 -58 5 -71 18 -18 36 -14 53 12 13 19 14 29 5
45 -10 20 -49 29 -63 14z"/>
<path d="M8057 9743 c-15 -15 -5 -23 28 -23 26 0 33 3 29 15 -6 15 -45 21 -57
8z"/>
<path d="M9297 9744 c-15 -16 -5 -24 29 -24 24 0 34 4 32 13 -5 13 -50 22 -61
11z"/>
<path d="M10362 9738 c-18 -18 -15 -42 7 -62 30 -27 63 -5 59 37 -2 26 -8 33
-28 35 -14 2 -31 -3 -38 -10z"/>
<path d="M10532 9738 c-18 -18 -15 -42 7 -62 30 -27 63 -5 59 37 -2 26 -8 33
-28 35 -14 2 -31 -3 -38 -10z"/>
<path d="M10691 9736 c-8 -9 -11 -26 -7 -40 13 -53 79 -38 74 17 -2 26 -8 33
-29 35 -14 2 -31 -4 -38 -12z"/>
<path d="M11597 9749 c-28 -16 -20 -29 18 -29 38 0 46 13 17 29 -11 6 -24 6
-35 0z"/>
<path d="M12591 9736 c-8 -9 -11 -26 -7 -40 13 -53 79 -38 74 17 -2 26 -8 33
-29 35 -14 2 -31 -4 -38 -12z"/>
<path d="M13007 9743 c-4 -3 -7 -19 -7 -34 0 -31 28 -53 54 -43 22 8 31 51 16
69 -13 15 -51 20 -63 8z"/>
<path d="M620 8928 c-64 -33 -92 -84 -88 -164 4 -72 39 -127 94 -150 40 -17
127 -18 157 -3 32 17 77 61 77 76 0 22 -50 15 -82 -12 -22 -19 -41 -25 -75
-25 -38 0 -50 5 -79 34 -29 29 -34 41 -34 83 0 57 28 109 66 123 45 17 89 12
118 -15 18 -17 39 -25 62 -25 l35 0 -21 30 c-48 68 -149 89 -230 48z"/>
<path d="M2722 8805 l3 -147 33 -29 c27 -25 41 -29 88 -29 119 0 144 39 144
225 l0 125 -30 0 -30 0 0 -130 c0 -117 -2 -132 -20 -150 -26 -26 -90 -27 -113
-2 -13 14 -17 45 -19 147 l-3 130 -28 3 -28 3 3 -146z"/>
<path d="M3340 8902 c0 -27 3 -84 7 -126 5 -71 8 -77 27 -74 20 3 21 10 24
126 l3 122 -31 0 c-29 0 -30 -1 -30 -48z"/>
<path d="M1590 8911 c0 -20 -6 -30 -20 -34 -23 -6 -28 -47 -6 -47 19 0 26 -32
26 -122 0 -68 3 -79 22 -92 12 -9 39 -16 60 -16 34 0 38 3 38 25 0 21 -5 25
-29 25 -34 0 -41 13 -41 83 0 80 8 97 41 97 22 0 29 5 29 20 0 14 -9 21 -35
26 -30 5 -35 10 -35 35 0 24 -4 29 -25 29 -21 0 -25 -5 -25 -29z"/>
<path d="M2410 8910 c0 -20 -5 -30 -15 -30 -9 0 -15 -9 -15 -25 0 -16 6 -25
15 -25 12 0 15 -17 15 -95 0 -115 12 -135 86 -135 41 0 45 2 42 22 -2 17 -12
24 -33 28 l-30 5 -3 88 -3 87 36 0 c28 0 35 4 35 19 0 14 -10 21 -35 25 -31 6
-35 11 -35 36 0 27 -3 30 -30 30 -27 0 -30 -3 -30 -30z"/>
<path d="M993 8865 c-45 -19 -73 -69 -73 -128 0 -89 51 -141 136 -139 62 0
102 26 126 78 56 127 -62 245 -189 189z m110 -55 c55 -43 40 -136 -24 -159
-45 -16 -81 4 -96 52 -30 89 51 161 120 107z"/>
<path d="M1338 8864 c-16 -8 -28 -10 -28 -4 0 5 -13 10 -30 10 l-30 0 0 -135
0 -135 30 0 30 0 0 86 c0 81 10 120 34 136 22 15 57 8 81 -17 23 -22 25 -32
25 -115 l0 -90 30 0 30 0 0 83 c0 45 -5 99 -11 120 -18 66 -97 96 -161 61z"/>
<path d="M1825 8870 c-81 -33 -105 -157 -45 -233 36 -45 114 -54 168 -19 20
13 22 13 22 -2 0 -11 9 -16 30 -16 l30 0 0 135 0 135 -30 0 c-20 0 -30 -5 -30
-15 0 -12 -6 -11 -32 5 -34 21 -78 25 -113 10z m119 -71 c44 -52 31 -119 -27
-144 -69 -29 -131 36 -107 111 23 68 90 85 134 33z"/>
<path d="M2152 8863 c-76 -37 -93 -171 -28 -232 31 -29 85 -41 134 -30 38 8
82 48 82 75 0 22 -39 17 -72 -11 -36 -30 -57 -31 -91 -5 -32 25 -42 69 -27
115 18 56 79 74 115 35 20 -22 75 -28 75 -7 0 19 -37 56 -67 68 -36 14 -84 11
-121 -8z"/>
<path d="M3104 8870 c-26 -10 -54 -48 -54 -72 0 -29 43 -66 94 -81 60 -17 80
-41 52 -63 -27 -20 -40 -18 -74 11 -57 48 -102 17 -49 -33 87 -82 246 -7 182
85 -8 12 -39 29 -68 38 -67 22 -85 38 -67 59 18 23 67 20 80 -4 12 -23 60 -28
60 -6 0 59 -85 95 -156 66z"/>
<path d="M3353 8663 c-19 -7 -16 -51 4 -62 37 -20 71 27 41 57 -13 13 -24 14
-45 5z"/>
<path d="M656 7861 c-7 -11 18 -33 27 -24 4 3 7 12 7 20 0 15 -26 18 -34 4z"/>
<path d="M1910 7844 c0 -13 -3 -14 -14 -5 -9 8 -16 8 -20 2 -4 -5 2 -14 11
-20 17 -10 17 -10 1 -11 -11 0 -15 -5 -12 -15 5 -12 10 -13 20 -4 11 9 14 8
14 -5 0 -9 5 -16 10 -16 6 0 10 7 10 15 0 9 6 12 15 9 8 -4 15 -2 15 4 0 6 -6
13 -12 15 -10 4 -10 6 0 6 6 1 12 8 12 16 0 9 -6 12 -15 9 -8 -4 -15 -1 -15 5
0 6 -4 11 -10 11 -5 0 -10 -7 -10 -16z"/>
<path d="M6750 7844 c0 -13 -3 -14 -14 -5 -9 8 -16 8 -20 2 -4 -5 2 -14 11
-20 17 -10 17 -10 1 -11 -11 0 -15 -5 -12 -15 5 -12 10 -13 20 -4 11 9 14 8
14 -5 0 -9 5 -16 10 -16 6 0 10 7 10 15 0 9 6 12 15 9 8 -4 15 -2 15 4 0 6 -6
13 -12 15 -10 4 -10 6 0 6 6 1 12 8 12 16 0 9 -6 12 -15 9 -8 -4 -15 -1 -15 5
0 6 -4 11 -10 11 -5 0 -10 -7 -10 -16z"/>
<path d="M530 7765 c0 -69 3 -85 15 -85 10 0 15 10 15 34 0 30 4 35 30 41 17
4 30 11 30 16 0 5 -13 9 -30 9 -25 0 -30 4 -30 25 0 22 4 25 35 25 19 0 35 5
35 10 0 6 -22 10 -50 10 l-50 0 0 -85z"/>
<path d="M960 7835 c0 -8 -4 -15 -10 -15 -5 0 -10 -7 -10 -15 0 -8 4 -15 9
-15 6 0 11 -24 13 -52 3 -49 5 -53 31 -56 29 -4 37 12 12 22 -10 3 -15 19 -15
46 0 29 4 40 15 40 8 0 15 7 15 15 0 8 -7 15 -15 15 -8 0 -15 7 -15 15 0 8 -7
15 -15 15 -8 0 -15 -7 -15 -15z"/>
<path d="M1110 7765 c0 -69 3 -85 15 -85 12 0 15 14 15 63 l0 62 41 -62 c55
-83 79 -85 79 -9 0 73 -10 116 -26 116 -10 0 -14 -15 -14 -57 l0 -58 -38 57
c-21 34 -44 58 -54 58 -16 0 -18 -11 -18 -85z"/>
<path d="M5380 7765 l0 -85 45 0 c25 0 45 5 45 10 0 6 -13 10 -30 10 l-30 0 0
75 c0 60 -3 75 -15 75 -12 0 -15 -16 -15 -85z"/>
<path d="M5800 7835 c0 -8 -4 -15 -10 -15 -5 0 -10 -7 -10 -15 0 -8 4 -15 9
-15 6 0 11 -24 13 -52 3 -49 5 -53 31 -56 29 -4 37 12 12 22 -10 3 -15 19 -15
46 0 29 4 40 15 40 8 0 15 7 15 15 0 8 -7 15 -15 15 -8 0 -15 7 -15 15 0 8 -7
15 -15 15 -8 0 -15 -7 -15 -15z"/>
<path d="M5950 7765 c0 -69 3 -85 15 -85 12 0 15 14 15 63 l0 62 41 -62 c55
-83 79 -85 79 -9 0 73 -10 116 -26 116 -10 0 -14 -15 -14 -57 l0 -58 -38 57
c-21 34 -44 58 -54 58 -16 0 -18 -11 -18 -85z"/>
<path d="M660 7750 c0 -56 3 -70 15 -70 12 0 15 14 15 70 0 56 -3 70 -15 70
-12 0 -15 -14 -15 -70z"/>
<path d="M720 7749 c0 -55 3 -69 15 -69 11 0 15 12 15 45 0 34 5 48 20 57 30
19 24 34 -15 35 l-35 1 0 -69z"/>
<path d="M825 7804 c-9 -9 -14 -23 -11 -31 3 -8 6 -16 6 -18 0 -2 16 -9 36
-15 19 -7 33 -17 31 -23 -4 -13 -17 -13 -56 -1 -21 6 -22 5 -12 -15 21 -38
101 -26 101 16 0 18 -9 28 -35 39 -19 8 -35 18 -35 22 0 19 15 21 36 7 29 -19
46 1 19 22 -25 18 -60 17 -80 -3z"/>
<path d="M1299 7799 c-23 -23 -25 -66 -3 -97 13 -18 24 -22 70 -21 l54 2 0 67
0 67 -51 1 c-37 1 -55 -4 -70 -19z m89 -46 c4 -42 -29 -64 -59 -37 -35 32 -16
77 31 72 20 -2 26 -9 28 -35z"/>
<path d="M1460 7749 c0 -54 3 -69 14 -69 11 0 16 15 18 53 3 46 6 52 27 55 30
5 41 -12 41 -65 0 -31 4 -43 14 -43 11 0 16 15 18 53 3 48 5 52 28 52 23 0 25
-4 28 -52 3 -46 6 -53 24 -53 19 0 20 4 15 57 -6 61 -23 83 -62 83 -12 0 -26
-5 -33 -12 -8 -8 -15 -8 -25 0 -7 6 -34 11 -60 10 l-47 -1 0 -68z"/>
<path d="M1730 7800 c-24 -24 -26 -67 -4 -98 18 -26 69 -30 100 -8 26 19 10
32 -22 18 -18 -9 -31 -9 -45 -2 -34 19 -20 30 36 30 32 0 55 4 55 11 0 15 -21
53 -34 61 -21 14 -66 8 -86 -12z m80 -30 c0 -6 -16 -10 -35 -10 -40 0 -41 2
-19 24 12 12 20 13 35 6 10 -6 19 -15 19 -20z"/>
<path d="M5499 7799 c-23 -23 -25 -66 -3 -97 13 -18 24 -22 70 -21 l54 2 0 67
0 67 -51 1 c-37 1 -55 -4 -70 -19z m85 -25 c17 -43 -11 -82 -48 -68 -22 8 -31
51 -16 69 16 20 56 19 64 -1z"/>
<path d="M5665 7804 c-9 -9 -14 -23 -11 -31 3 -8 6 -16 6 -18 0 -2 16 -9 36
-15 19 -7 33 -17 31 -23 -4 -13 -17 -13 -56 -1 -21 6 -22 5 -12 -15 21 -38
101 -26 101 16 0 18 -9 28 -35 39 -19 8 -35 18 -35 22 0 19 15 21 36 7 29 -19
46 1 19 22 -25 18 -60 17 -80 -3z"/>
<path d="M6139 7799 c-23 -23 -25 -66 -3 -97 13 -18 24 -22 70 -21 l54 2 0 67
0 67 -51 1 c-37 1 -55 -4 -70 -19z m89 -46 c4 -42 -29 -64 -59 -37 -35 32 -16
77 31 72 20 -2 26 -9 28 -35z"/>
<path d="M6300 7749 c0 -54 3 -69 14 -69 11 0 16 15 18 53 3 46 6 52 27 55 30
5 41 -12 41 -65 0 -31 4 -43 14 -43 11 0 16 15 18 53 3 48 5 52 28 52 23 0 25
-4 28 -52 3 -46 6 -53 24 -53 19 0 20 4 15 57 -6 61 -23 83 -62 83 -12 0 -26
-5 -33 -12 -8 -8 -15 -8 -25 0 -7 6 -34 11 -60 10 l-47 -1 0 -68z"/>
<path d="M6570 7800 c-24 -24 -26 -67 -4 -98 18 -26 69 -30 100 -8 26 19 10
32 -22 18 -18 -9 -31 -9 -45 -2 -34 19 -20 30 36 30 32 0 55 4 55 11 0 15 -21
53 -34 61 -21 14 -66 8 -86 -12z m80 -30 c0 -6 -16 -10 -35 -10 -40 0 -41 2
-19 24 12 12 20 13 35 6 10 -6 19 -15 19 -20z"/>
<path d="M730 7390 c0 -5 5 -10 10 -10 6 0 10 5 10 10 0 6 -4 10 -10 10 -5 0
-10 -4 -10 -10z"/>
<path d="M630 7315 c0 -37 4 -65 10 -65 6 0 10 15 10 34 0 28 4 35 23 39 l22
4 -22 2 c-35 2 -31 39 5 44 22 3 20 4 -10 6 l-38 1 0 -65z"/>
<path d="M969 7368 c-3 -38 4 -95 13 -105 6 -7 18 -13 27 -13 14 1 14 2 -1 11
-12 6 -18 22 -18 44 0 22 6 38 18 44 16 10 16 10 0 11 -10 0 -18 5 -18 10 0
15 -20 12 -21 -2z"/>
<path d="M1102 7313 c2 -64 2 -65 5 -15 2 28 7 52 11 52 4 0 20 -20 35 -45 16
-25 33 -47 38 -51 5 -3 8 24 7 63 -1 56 -2 60 -5 21 -2 -27 -7 -48 -11 -48 -4
0 -20 20 -35 45 -16 25 -33 45 -38 45 -5 0 -8 -30 -7 -67z"/>
<path d="M5470 7315 l0 -65 33 1 c23 1 26 3 10 6 -21 4 -23 10 -23 64 0 33 -4
59 -10 59 -6 0 -10 -28 -10 -65z"/>
<path d="M5803 7365 c-6 -7 -8 -16 -3 -21 5 -5 10 -27 12 -49 2 -31 7 -41 23
-43 19 -3 19 -2 3 11 -10 8 -18 28 -18 45 0 19 7 35 18 41 15 9 15 10 0 11 -9
0 -18 4 -20 9 -1 5 -8 3 -15 -4z"/>
<path d="M5932 7313 c2 -64 2 -65 5 -15 2 28 8 52 13 52 4 0 20 -20 34 -44 39
-68 46 -66 44 11 -1 67 -1 67 -7 18 l-6 -50 -33 48 c-18 26 -37 47 -42 47 -6
0 -9 -30 -8 -67z"/>
<path d="M730 7305 c0 -30 5 -55 10 -55 6 0 10 25 10 55 0 30 -4 55 -10 55 -5
0 -10 -25 -10 -55z"/>
<path d="M792 7300 c1 -51 2 -52 5 -12 3 25 10 45 19 49 20 8 17 19 -6 19 -18
0 -20 -6 -18 -56z"/>
<path d="M870 7345 c-10 -12 -10 -18 0 -30 7 -8 18 -15 26 -15 19 0 28 -20 15
-33 -8 -8 -14 -8 -23 1 -17 17 -33 15 -18 -3 7 -8 20 -15 30 -15 28 0 45 27
30 45 -7 8 -18 15 -26 15 -19 0 -28 20 -15 33 8 8 14 8 23 -1 7 -7 17 -12 23
-12 14 1 -26 30 -41 30 -6 0 -17 -7 -24 -15z"/>
<path d="M1244 7335 c-20 -30 -11 -62 22 -77 17 -8 27 -8 39 2 10 8 15 9 15 1
0 -6 5 -11 10 -11 6 0 10 25 10 55 0 30 -4 55 -10 55 -5 0 -10 -5 -10 -12 0
-9 -3 -9 -12 0 -19 19 -46 14 -64 -13z m64 3 c32 -32 -3 -88 -41 -67 -22 13
-22 55 1 68 22 13 26 13 40 -1z"/>
<path d="M1382 7301 c1 -47 2 -50 5 -16 9 84 60 87 73 3 l7 -43 2 41 c2 78 61
86 61 8 0 -24 5 -44 10 -44 16 0 12 77 -6 94 -18 18 -40 21 -49 5 -4 -6 -14
-7 -24 -3 -9 4 -31 8 -48 9 l-33 2 2 -56z"/>
<path d="M1595 7344 c-26 -26 -16 -77 17 -88 19 -7 31 -6 43 4 8 7 13 15 10
18 -2 3 -11 0 -18 -7 -17 -13 -43 -6 -51 15 -4 11 5 14 39 14 49 0 58 15 27
43 -23 21 -46 21 -67 1z m53 -6 c20 -20 14 -28 -23 -28 -38 0 -46 13 -17 29
22 13 26 13 40 -1z"/>
<path d="M5564 7335 c-20 -30 -11 -62 22 -77 17 -8 27 -8 39 2 10 8 15 9 15 1
0 -6 5 -11 10 -11 6 0 10 25 10 55 0 30 -4 55 -10 55 -5 0 -10 -5 -10 -12 0
-9 -3 -9 -12 0 -19 19 -46 14 -64 -13z m76 -30 c0 -29 -28 -47 -53 -34 -22 13
-22 55 0 68 25 13 53 -5 53 -34z"/>
<path d="M5700 7345 c-16 -19 3 -45 31 -45 11 0 19 -6 19 -14 0 -22 -19 -30
-36 -15 -8 6 -17 9 -21 6 -3 -4 6 -12 21 -18 22 -11 29 -10 43 4 13 13 14 19
3 31 -7 9 -18 16 -26 16 -19 0 -28 20 -15 33 8 8 14 8 23 -1 17 -17 33 -15 18
3 -7 8 -20 15 -30 15 -10 0 -23 -7 -30 -15z"/>
<path d="M6087 7349 c-11 -7 -17 -22 -17 -45 0 -27 5 -37 25 -46 20 -9 28 -9
38 1 9 10 9 11 -4 6 -20 -8 -49 19 -49 45 0 23 32 42 54 34 16 -6 20 -20 17
-61 -1 -11 3 -24 8 -28 7 -4 11 12 11 47 0 53 0 53 -33 55 -18 1 -40 -3 -50
-8z"/>
<path d="M6211 7300 l2 -55 7 43 c7 45 23 64 47 55 13 -5 18 -19 26 -73 3 -15
5 -9 6 16 1 45 19 68 45 58 15 -6 21 -19 29 -74 3 -14 5 -4 6 23 1 41 -2 49
-24 59 -19 8 -28 8 -40 -2 -11 -9 -19 -10 -28 -1 -7 6 -28 9 -45 8 -32 -2 -32
-2 -31 -57z"/>
<path d="M6426 7344 c-21 -21 -20 -57 2 -77 24 -22 46 -22 63 0 13 15 12 15
-8 5 -25 -14 -53 -6 -53 14 0 10 12 14 40 14 44 0 52 16 22 43 -23 21 -46 22
-66 1z m48 0 c28 -11 18 -34 -14 -34 -30 0 -43 23 -17 33 6 3 13 6 14 6 1 1 8
-2 17 -5z"/>
<path d="M11814 6850 c-493 -52 -926 -323 -1186 -743 -243 -390 -301 -886
-157 -1322 222 -668 867 -1114 1564 -1081 525 24 1001 303 1277 749 323 520
311 1187 -30 1703 -92 137 -235 288 -372 391 -307 230 -716 343 -1096 303z
m-224 -1410 c146 -117 283 -221 305 -231 51 -24 99 -24 152 0 23 11 192 140
375 287 445 357 429 344 466 378 l32 30 0 -626 0 -626 -950 0 -950 0 0 624 0
623 153 -123 c83 -67 271 -219 417 -336z"/>
<path d="M1096 6471 c-7 -11 18 -33 27 -24 4 3 7 12 7 20 0 15 -26 18 -34 4z"/>
<path d="M1167 6473 c-4 -3 -7 -46 -7 -95 0 -81 2 -88 20 -88 18 0 20 7 20 58
0 100 -13 146 -33 125z"/>
<path d="M5936 6471 c-7 -11 18 -33 27 -24 4 3 7 12 7 20 0 15 -26 18 -34 4z"/>
<path d="M1267 6453 c6 -15 4 -16 -9 -6 -18 16 -32 5 -17 -14 9 -9 8 -13 0
-13 -6 0 -11 -4 -11 -10 0 -5 7 -10 15 -10 8 0 15 -4 15 -10 0 -5 7 -10 15
-10 8 0 15 5 15 10 0 6 7 10 15 10 8 0 15 5 15 10 0 6 -5 10 -11 10 -8 0 -9 4
0 13 14 18 2 30 -16 15 -11 -8 -12 -7 -7 6 4 11 1 16 -10 16 -10 0 -13 -5 -9
-17z"/>
<path d="M6280 6459 c0 -6 -7 -9 -15 -5 -9 3 -15 0 -15 -8 0 -8 6 -17 13 -19
10 -4 10 -6 0 -6 -7 -1 -13 -8 -13 -17 0 -14 3 -14 15 -4 12 10 15 10 15 -4 0
-9 5 -16 10 -16 6 0 10 7 10 15 0 9 6 12 15 9 8 -4 15 -2 15 4 0 6 -6 13 -12
15 -10 4 -10 6 0 6 6 1 12 8 12 16 0 9 -6 12 -15 9 -8 -4 -15 -1 -15 5 0 6 -4
11 -10 11 -5 0 -10 -5 -10 -11z"/>
<path d="M540 6375 l0 -85 50 0 c58 0 67 15 15 24 -46 9 -50 44 -5 53 17 3 30
9 30 14 0 5 -13 9 -30 9 -25 0 -30 4 -30 25 0 22 4 25 35 25 19 0 35 5 35 10
0 6 -22 10 -50 10 l-50 0 0 -85z"/>
<path d="M5380 6375 c0 -69 3 -85 15 -85 12 0 15 16 15 85 0 69 -3 85 -15 85
-12 0 -15 -16 -15 -85z"/>
<path d="M670 6359 c0 -54 3 -69 14 -69 11 0 16 15 18 53 3 46 6 52 27 55 30
5 41 -12 41 -65 0 -31 4 -43 14 -43 11 0 16 15 18 53 3 48 5 52 28 52 23 0 25
-4 28 -52 3 -46 6 -53 24 -53 19 0 20 4 15 57 -6 61 -23 83 -62 83 -12 0 -26
-5 -32 -11 -8 -8 -17 -8 -30 -1 -11 6 -38 11 -61 10 l-42 0 0 -69z"/>
<path d="M939 6409 c-23 -23 -25 -66 -3 -97 13 -18 24 -22 70 -21 l54 2 0 67
0 67 -51 1 c-37 1 -55 -4 -70 -19z m85 -25 c17 -43 -11 -82 -48 -68 -22 8 -31
51 -16 69 16 20 56 19 64 -1z"/>
<path d="M1100 6360 c0 -56 3 -70 15 -70 12 0 15 14 15 70 0 56 -3 70 -15 70
-12 0 -15 -14 -15 -70z"/>
<path d="M5444 6421 c-2 -2 -4 -33 -4 -68 0 -56 2 -63 20 -63 18 0 20 7 20 56
0 54 0 55 28 52 25 -3 27 -7 30 -55 2 -38 7 -53 18 -53 20 0 20 103 -1 124
-15 14 -98 20 -111 7z"/>
<path d="M5620 6410 c-26 -26 -26 -81 0 -105 14 -13 29 -16 55 -12 l35 6 0
-40 c0 -28 4 -39 15 -39 12 0 15 18 15 105 0 87 -3 105 -15 105 -8 0 -15 -5
-15 -12 0 -9 -3 -9 -12 0 -18 18 -56 14 -78 -8z m80 -25 c15 -18 6 -61 -16
-69 -37 -14 -65 25 -48 68 8 20 48 21 64 1z"/>
<path d="M5777 6423 c-13 -12 -7 -89 8 -111 13 -18 25 -21 65 -21 l50 2 0 68
c0 55 -3 69 -15 69 -11 0 -15 -12 -15 -49 0 -91 -53 -95 -65 -5 -6 51 -13 63
-28 47z"/>
<path d="M5940 6360 c0 -56 3 -70 15 -70 12 0 15 14 15 70 0 56 -3 70 -15 70
-12 0 -15 -14 -15 -70z"/>
<path d="M6005 6421 c-3 -2 -5 -33 -5 -68 0 -56 2 -63 20 -63 17 0 20 7 20 51
0 42 3 52 20 56 35 9 23 31 -15 30 -20 -1 -38 -3 -40 -6z"/>
<path d="M6090 6420 c0 -5 9 -33 21 -62 20 -51 21 -82 4 -122 -6 -14 -4 -17
10 -15 11 3 31 37 56 98 21 51 39 97 39 102 0 14 -30 10 -31 -3 0 -7 -8 -31
-18 -53 l-18 -40 -17 53 c-10 30 -24 52 -32 52 -8 0 -14 -4 -14 -10z"/>
<path d="M9052 6188 c-9 -9 -12 -77 -12 -243 0 -166 3 -234 12 -243 8 -8 60
-12 168 -12 108 0 160 4 168 12 9 9 12 77 12 243 0 166 -3 234 -12 243 -8 8
-60 12 -168 12 -108 0 -160 -4 -168 -12z m188 -212 l5 -68 29 31 c31 32 56 40
56 19 0 -18 -91 -108 -109 -108 -19 0 -111 89 -111 107 0 22 23 14 57 -19 l33
-32 0 65 c0 36 3 69 7 73 17 17 28 -6 33 -68z"/>
<path d="M5920 6010 c0 -5 5 -10 10 -10 6 0 10 5 10 10 0 6 -4 10 -10 10 -5 0
-10 -4 -10 -10z"/>
<path d="M1070 6000 c0 -5 5 -10 10 -10 6 0 10 5 10 10 0 6 -4 10 -10 10 -5 0
-10 -4 -10 -10z"/>
<path d="M1120 5930 c0 -40 4 -70 10 -70 6 0 10 30 10 70 0 40 -4 70 -10 70
-6 0 -10 -30 -10 -70z"/>
<path d="M5470 5935 c0 -37 4 -65 10 -65 6 0 10 28 10 65 0 37 -4 65 -10 65
-6 0 -10 -28 -10 -65z"/>
<path d="M620 5925 l0 -65 38 1 c30 2 32 3 10 6 -23 4 -28 9 -28 33 0 22 5 30
23 33 l22 4 -22 2 c-35 2 -31 39 5 44 22 3 20 4 -10 6 l-38 1 0 -65z"/>
<path d="M5520 5924 c0 -30 5 -54 10 -54 6 0 10 17 10 39 0 42 18 65 44 55 11
-4 16 -19 16 -50 0 -24 5 -44 10 -44 12 0 13 70 1 89 -5 8 -28 16 -50 17 l-41
2 0 -54z"/>
<path d="M5668 5969 c-12 -6 -18 -22 -18 -44 0 -42 29 -63 66 -47 21 10 23 9
27 -26 2 -20 4 1 5 48 1 47 -2 80 -6 73 -5 -8 -13 -9 -22 -3 -19 12 -31 12
-52 -1z m56 -15 c9 -8 16 -22 16 -29 0 -15 -27 -45 -40 -45 -13 0 -40 30 -40
45 0 15 27 45 40 45 5 0 16 -7 24 -16z"/>
<path d="M5791 5938 c-1 -52 13 -67 62 -65 26 2 27 4 26 57 l-2 55 -7 -43 c-7
-45 -23 -64 -47 -55 -13 5 -18 19 -26 73 -3 14 -5 4 -6 -22z"/>
<path d="M5923 5925 c0 -33 2 -45 4 -27 2 18 2 45 0 60 -2 15 -4 0 -4 -33z"/>
<path d="M5970 5924 c0 -30 5 -54 10 -54 6 0 10 18 10 40 0 27 5 43 15 46 23
9 18 19 -10 20 -24 2 -25 -1 -25 -52z"/>
<path d="M6040 5975 c0 -2 9 -27 20 -55 16 -40 18 -56 9 -71 -6 -12 -8 -23 -6
-26 7 -6 18 16 50 95 14 34 22 62 18 62 -4 0 -14 -18 -21 -40 -7 -22 -17 -40
-21 -40 -5 0 -14 18 -20 40 -7 22 -16 40 -21 40 -4 0 -8 -2 -8 -5z"/>
<path d="M732 5911 c1 -49 2 -51 5 -14 7 78 63 85 63 7 0 -24 5 -44 10 -44 6
0 10 17 10 39 0 42 18 65 44 55 11 -4 16 -19 16 -50 0 -24 5 -44 10 -44 16 0
12 77 -6 94 -18 18 -40 21 -49 5 -4 -6 -14 -7 -24 -3 -9 4 -31 8 -48 9 l-33 2
2 -56z"/>
<path d="M948 5959 c-12 -6 -18 -22 -18 -44 0 -42 29 -63 66 -47 17 8 24 8 28
-1 2 -7 5 15 5 48 0 33 -3 55 -7 48 -5 -8 -13 -9 -22 -3 -19 12 -31 12 -52 -1z
m56 -15 c9 -8 16 -22 16 -29 0 -15 -27 -45 -40 -45 -13 0 -40 30 -40 45 0 15
27 45 40 45 5 0 16 -7 24 -16z"/>
<path d="M1073 5915 c0 -33 2 -45 4 -27 2 18 2 45 0 60 -2 15 -4 0 -4 -33z"/>
<path d="M1710 5164 c0 -13 -3 -14 -14 -5 -9 8 -16 8 -20 2 -4 -5 2 -14 11
-20 17 -10 17 -10 1 -11 -10 0 -18 -5 -18 -11 0 -6 9 -9 20 -6 13 3 20 0 20
-9 0 -8 5 -14 10 -14 6 0 10 7 10 15 0 9 6 12 15 9 8 -4 15 -2 15 4 0 6 -6 13
-12 15 -10 4 -10 6 0 6 6 1 12 8 12 16 0 9 -6 12 -15 9 -8 -4 -15 -1 -15 5 0
6 -4 11 -10 11 -5 0 -10 -7 -10 -16z"/>
<path d="M540 5085 c0 -69 3 -85 15 -85 11 0 15 13 16 53 l0 52 24 -52 c13
-29 29 -53 35 -53 6 0 22 24 35 53 l25 52 0 -52 c0 -40 4 -53 15 -53 12 0 15
16 15 85 0 71 -3 85 -16 85 -9 0 -25 -23 -41 -60 -15 -33 -29 -60 -32 -60 -4
0 -18 27 -33 60 -16 37 -32 60 -42 60 -13 0 -16 -14 -16 -85z"/>
<path d="M770 5120 c-41 -41 -14 -120 41 -120 34 0 69 16 69 30 0 13 -33 13
-47 -1 -8 -8 -17 -8 -32 0 -36 20 -23 31 34 31 62 0 68 10 34 54 -25 32 -70
35 -99 6z m80 -30 c0 -6 -16 -10 -35 -10 -40 0 -41 2 -19 24 12 12 20 13 35 6
10 -6 19 -15 19 -20z"/>
<path d="M920 5125 c-19 -23 -7 -49 34 -68 28 -14 36 -21 28 -29 -9 -9 -18 -8
-37 2 -29 16 -43 7 -25 -15 16 -19 74 -20 90 0 19 22 2 53 -35 65 -19 6 -35
16 -35 21 0 13 34 11 47 -2 16 -16 28 8 13 26 -16 19 -64 19 -80 0z"/>
<path d="M1058 5129 c-21 -12 -24 -42 -5 -56 6 -6 24 -13 40 -17 27 -6 35 -20
18 -31 -5 -3 -21 0 -35 6 -31 14 -44 6 -26 -16 15 -18 71 -20 88 -3 24 24 13
49 -28 65 -22 9 -40 19 -40 23 0 16 30 18 45 3 11 -10 20 -12 26 -6 14 14 -16
43 -44 43 -12 0 -30 -5 -39 -11z"/>
<path d="M1189 5119 c-23 -23 -25 -66 -3 -97 13 -18 24 -22 70 -21 l54 2 0 67
0 67 -51 1 c-37 1 -55 -4 -70 -19z m89 -46 c4 -42 -29 -64 -59 -37 -35 32 -16
77 31 72 20 -2 26 -9 28 -35z"/>
<path d="M1359 5119 c-23 -23 -25 -66 -3 -98 13 -19 24 -22 56 -19 34 3 38 1
36 -17 -4 -25 -33 -31 -64 -14 -31 16 -42 4 -19 -21 22 -24 62 -26 93 -4 20
14 22 24 22 103 l0 88 -51 1 c-37 1 -55 -4 -70 -19z m89 -46 c5 -55 -61 -70
-74 -17 -8 32 13 56 45 52 21 -2 27 -9 29 -35z"/>
<path d="M1530 5120 c-24 -24 -26 -67 -4 -98 18 -26 69 -30 100 -8 26 19 10
32 -22 18 -18 -9 -31 -9 -45 -2 -34 19 -20 30 36 30 62 0 68 10 34 54 -25 32
-70 35 -99 6z m80 -30 c0 -6 -16 -10 -35 -10 -40 0 -41 2 -19 24 12 12 20 13
35 6 10 -6 19 -15 19 -20z"/>
<path d="M1181 4441 c-9 -6 -13 -28 -12 -72 1 -73 11 -95 11 -26 0 28 5 47 11
47 8 0 7 5 -2 16 -10 13 -10 17 1 24 8 5 12 11 9 14 -2 3 -11 1 -18 -3z"/>
<path d="M740 4365 c0 -37 4 -65 10 -65 6 0 10 28 10 65 0 37 -4 65 -10 65 -6
0 -10 -28 -10 -65z"/>
<path d="M1941 4418 c0 -10 -7 -18 -13 -18 -10 0 -10 -2 -1 -8 6 -4 13 -25 15
-47 2 -27 8 -40 18 -41 9 0 10 1 3 3 -21 7 -16 81 5 86 15 4 15 5 0 6 -9 0
-19 9 -21 19 -4 16 -5 16 -6 0z"/>
<path d="M802 4345 l1 -50 6 45 c5 40 9 45 31 45 22 0 25 -5 28 -42 4 -54 22
-57 22 -4 0 46 -16 62 -59 59 -31 -2 -31 -3 -29 -53z"/>
<path d="M980 4381 c-25 -47 -5 -75 55 -77 l45 -2 0 50 c0 35 -4 48 -12 45 -7
-2 -13 -19 -13 -37 0 -36 -22 -57 -49 -47 -28 11 -17 69 14 78 l25 7 -27 1
c-17 1 -31 -6 -38 -18z"/>
<path d="M1229 4374 c-7 -20 -6 -32 6 -50 16 -25 58 -33 70 -14 4 7 -3 8 -20
4 -18 -4 -30 -2 -36 7 -15 24 -10 29 31 29 33 0 40 4 40 19 0 21 -19 31 -56
31 -17 0 -27 -8 -35 -26z m79 -1 c2 -9 -8 -13 -32 -13 -34 0 -44 8 -29 24 11
11 56 2 61 -11z"/>
<path d="M1351 4391 c-2 -27 23 -91 33 -88 6 2 16 21 22 42 11 42 18 39 29
-12 3 -18 11 -33 16 -33 10 0 26 35 34 78 l5 27 -11 -25 c-6 -14 -15 -34 -19
-45 -6 -17 -9 -13 -19 23 -7 23 -16 42 -21 42 -5 0 -14 -19 -21 -42 -10 -39
-12 -41 -20 -20 -22 54 -28 66 -28 53z"/>
<path d="M1577 4393 c-15 -15 -5 -35 23 -44 17 -6 30 -17 30 -25 0 -17 -31
-18 -49 -1 -11 10 -13 9 -9 -3 6 -19 45 -25 64 -10 22 19 17 28 -21 44 -43 18
-47 40 -6 34 17 -2 28 -1 25 4 -6 10 -48 11 -57 1z"/>
<path d="M1680 4381 c-14 -27 -13 -47 6 -65 17 -17 59 -22 68 -7 3 5 -9 8 -26
7 -23 -1 -33 4 -36 17 -3 14 4 17 37 17 27 0 41 4 41 13 0 38 -71 52 -90 18z
m74 -6 c4 -12 -3 -15 -29 -15 -33 0 -43 8 -28 23 12 13 51 7 57 -8z"/>
<path d="M1800 4349 c0 -60 18 -65 22 -6 3 37 6 42 28 42 22 0 26 -5 31 -45
l7 -45 -2 50 -1 50 -42 1 -43 2 0 -49z"/>
<path d="M2012 4388 c-16 -16 -15 -63 2 -77 7 -6 30 -10 50 -9 36 3 36 3 36
48 0 45 0 45 -38 48 -21 1 -43 -3 -50 -10z m72 -20 c8 -13 8 -23 0 -35 -16
-26 -51 -28 -64 -4 -25 47 36 83 64 39z"/>
<path d="M2140 4349 c0 -60 18 -65 22 -6 3 37 6 42 28 42 22 0 26 -5 31 -45
l7 -45 -2 50 -1 50 -42 1 -43 2 0 -49z"/>
<path d="M2272 4376 c-22 -49 44 -102 78 -62 8 10 8 16 2 16 -6 0 -14 -4 -17
-10 -12 -20 -45 -10 -51 15 -11 44 2 58 44 52 25 -5 32 -3 22 3 -28 18 -66 11
-78 -14z"/>
<path d="M2392 4376 c-21 -46 38 -101 72 -66 8 9 4 10 -18 4 -19 -5 -31 -2
-37 7 -15 24 -10 29 31 29 33 0 40 4 40 19 0 37 -71 44 -88 7z m76 -3 c2 -9
-8 -13 -32 -13 -34 0 -44 8 -29 24 11 11 56 2 61 -11z"/>
<path d="M2517 4393 c-15 -14 -6 -31 23 -43 17 -7 30 -19 30 -26 0 -17 -37
-19 -43 -1 -2 6 -8 8 -13 4 -12 -12 17 -28 46 -25 38 4 39 37 1 51 -42 15 -42
42 -1 33 19 -3 29 -2 25 4 -7 11 -58 14 -68 3z"/>
<path d="M2620 4310 c0 -5 5 -10 10 -10 6 0 10 5 10 10 0 6 -4 10 -10 10 -5 0
-10 -4 -10 -10z"/>
<path d="M2715 4310 c-3 -5 -1 -10 4 -10 6 0 11 5 11 10 0 6 -2 10 -4 10 -3 0
-8 -4 -11 -10z"/>
<path d="M8410 1415 c0 -8 7 -15 15 -15 8 0 15 7 15 15 0 8 -7 15 -15 15 -8 0
-15 -7 -15 -15z"/>
<path d="M6560 1330 c0 -73 3 -90 15 -90 12 0 15 17 15 90 0 73 -3 90 -15 90
-12 0 -15 -17 -15 -90z"/>
<path d="M7140 1330 c0 -73 3 -90 15 -90 10 0 15 10 15 27 l0 27 28 -27 c15
-15 37 -27 47 -27 16 0 14 6 -14 34 l-33 34 32 36 c29 32 30 36 12 36 -11 0
-32 -15 -46 -32 l-26 -33 0 53 c0 39 -4 52 -15 52 -12 0 -15 -17 -15 -90z"/>
<path d="M7540 1395 c0 -22 -3 -24 -30 -19 -47 10 -80 -17 -80 -65 0 -53 22
-70 88 -69 l52 1 0 89 c0 72 -3 88 -15 88 -9 0 -15 -9 -15 -25z m-10 -60 c29
-35 -21 -93 -55 -65 -15 13 -20 61 -8 73 12 12 50 7 63 -8z"/>
<path d="M7710 1402 c-81 -40 -55 -162 34 -162 19 0 38 -4 41 -10 4 -6 -21
-10 -67 -10 -548 -2 -1021 0 -1025 4 -5 5 3 29 42 119 15 36 15 38 -1 35 -10
-2 -23 -21 -32 -45 -7 -24 -18 -43 -22 -43 -5 0 -15 18 -21 41 -12 37 -32 59
-44 47 -3 -3 6 -33 20 -68 14 -35 25 -70 25 -77 0 -10 -69 -13 -355 -13 l-355
0 0 78 0 79 -51 1 c-61 1 -89 -21 -89 -71 0 -47 29 -71 75 -64 26 4 35 2 35
-9 0 -12 -33 -14 -197 -16 -109 0 -222 0 -250 1 -34 2 -53 -1 -53 -8 0 -8 75
-11 250 -11 216 0 250 -2 250 -15 0 -8 7 -15 15 -15 8 0 15 7 15 15 0 13 45
15 345 15 300 0 345 -2 345 -15 0 -8 5 -15 10 -15 6 0 13 7 16 15 5 13 140 15
1125 15 739 0 1119 3 1119 10 0 7 -186 10 -538 10 -526 0 -539 0 -557 20 -10
11 -13 20 -8 20 6 0 16 13 23 29 33 80 -43 152 -120 113z m84 -34 c9 -12 16
-33 16 -45 0 -28 -33 -63 -60 -63 -27 0 -60 35 -60 63 0 36 27 67 60 67 18 0
34 -8 44 -22z m-1884 -33 c15 -18 6 -61 -16 -69 -26 -10 -54 12 -54 43 0 15 3
31 7 34 12 12 50 7 63 -8z"/>
<path d="M5440 1325 c0 -69 3 -85 15 -85 11 0 15 11 15 40 0 38 2 40 31 40 17
0 28 4 24 10 -3 6 -17 10 -31 10 -19 0 -24 5 -24 25 0 22 4 25 35 25 19 0 35
5 35 10 0 6 -22 10 -50 10 l-50 0 0 -85z"/>
<path d="M6463 1385 c-6 -14 -7 -27 -2 -31 5 -3 9 -27 9 -54 0 -45 2 -50 25
-56 32 -8 46 4 22 17 -22 13 -25 89 -2 89 8 0 15 7 15 15 0 8 -7 15 -15 15 -8
0 -15 7 -15 15 0 24 -24 17 -37 -10z"/>
<path d="M6858 1332 c-33 -91 -33 -92 -13 -92 8 0 15 7 15 15 0 11 11 15 40
15 27 0 43 -5 46 -15 6 -15 34 -21 33 -7 0 4 -12 41 -28 82 -39 106 -57 106
-93 2z m72 -28 c0 -2 -11 -4 -25 -4 -29 0 -28 -2 -14 40 l12 32 13 -32 c8 -18
14 -34 14 -36z"/>
<path d="M8317 1391 c-7 -27 4 -124 15 -138 12 -15 48 -18 48 -4 0 5 -7 11
-15 15 -10 3 -15 19 -15 46 0 29 4 40 15 40 8 0 15 7 15 15 0 8 -7 15 -15 15
-8 0 -15 7 -15 15 0 21 -27 19 -33 -4z"/>
<path d="M5570 1308 c0 -54 3 -68 15 -68 11 0 15 12 15 51 0 42 3 52 20 56 33
9 23 29 -15 29 l-35 0 0 -68z"/>
<path d="M5675 1355 c-14 -13 -25 -31 -25 -40 0 -20 19 -57 34 -67 19 -13 73
-9 86 7 18 21 4 32 -21 17 -24 -15 -59 -7 -59 14 0 10 13 14 50 14 43 0 50 3
50 20 0 28 -35 60 -65 60 -14 0 -37 -11 -50 -25z m66 -5 c30 -16 23 -30 -16
-30 -37 0 -43 8 -23 28 15 15 15 15 39 2z"/>
<path d="M5990 1321 c0 -70 10 -81 73 -79 l47 1 0 69 c0 51 -3 69 -12 66 -8
-3 -14 -26 -16 -54 -4 -61 -25 -80 -56 -48 -10 9 -16 33 -16 60 0 24 -4 44
-10 44 -6 0 -10 -26 -10 -59z"/>
<path d="M6160 1360 c-43 -43 -11 -120 49 -120 28 0 68 26 57 38 -3 2 -19 -1
-36 -8 -24 -10 -33 -10 -45 0 -27 22 -16 30 41 30 53 0 55 1 48 23 -17 57 -75
76 -114 37z m64 -6 c30 -12 18 -34 -19 -34 -38 0 -46 13 -17 29 21 13 17 12
36 5z"/>
<path d="M6305 1371 c-3 -2 -5 -33 -5 -68 0 -49 3 -63 15 -63 11 0 15 11 15
43 0 53 11 70 41 65 21 -3 24 -9 27 -55 2 -38 7 -53 18 -53 22 0 19 102 -4
123 -16 15 -95 21 -107 8z"/>
<path d="M7015 1364 c-9 -9 -14 -23 -11 -31 3 -8 6 -16 6 -18 0 -2 16 -9 35
-15 19 -6 35 -15 35 -20 0 -16 -21 -22 -35 -10 -8 6 -22 10 -31 8 -17 -3 -17
-4 0 -20 20 -21 66 -24 84 -6 22 22 13 48 -22 63 -19 8 -37 19 -40 24 -9 14
16 19 42 8 29 -13 42 1 18 19 -26 19 -61 18 -81 -2z"/>
<path d="M7290 1353 c-25 -32 -21 -79 7 -100 23 -18 78 -16 93 2 18 22 5 30
-25 17 -28 -13 -51 -7 -59 14 -4 11 6 14 49 14 47 0 55 3 55 18 0 26 -42 62
-72 62 -17 0 -34 -10 -48 -27z m76 -10 c17 -17 17 -18 -4 -21 -12 -2 -32 -2
-44 0 -21 3 -21 4 -4 21 10 9 21 17 26 17 5 0 16 -8 26 -17z"/>
<path d="M7870 1321 c0 -70 10 -81 73 -79 l47 1 0 69 c0 51 -3 69 -12 66 -8
-3 -14 -26 -16 -54 -4 -61 -25 -80 -56 -48 -10 9 -16 33 -16 60 0 24 -4 44
-10 44 -6 0 -10 -26 -10 -59z"/>
<path d="M8040 1360 c-43 -43 -11 -120 48 -120 31 0 71 24 60 36 -4 3 -21 1
-38 -6 -24 -10 -33 -10 -45 0 -27 22 -16 30 41 30 53 0 55 1 48 23 -17 57 -75
76 -114 37z m64 -6 c30 -12 18 -34 -19 -34 -38 0 -46 13 -17 29 21 13 17 12
36 5z"/>
<path d="M8198 1369 c-32 -18 -22 -49 22 -66 22 -9 40 -20 40 -24 0 -17 -23
-21 -46 -8 -28 15 -42 6 -24 -16 18 -22 77 -19 90 4 14 28 2 51 -31 58 -34 6
-46 20 -31 35 6 6 17 5 30 -3 25 -16 40 -5 22 16 -14 17 -47 19 -72 4z"/>
<path d="M8410 1310 c0 -56 3 -70 15 -70 12 0 15 14 15 70 0 56 -3 70 -15 70
-12 0 -15 -14 -15 -70z"/>
<path d="M8490 1360 c-26 -26 -26 -81 -2 -103 19 -17 68 -22 88 -9 15 10 34
47 34 67 0 25 -46 65 -75 65 -14 0 -34 -9 -45 -20z m78 -22 c18 -18 15 -43 -9
-64 -15 -14 -24 -16 -37 -8 -18 12 -27 46 -18 70 7 17 47 19 64 2z"/>
<path d="M8640 1308 c0 -39 4 -68 10 -68 6 0 10 15 10 33 0 60 10 78 39 75 24
-3 26 -7 29 -55 2 -38 7 -53 18 -53 10 0 14 14 14 54 0 69 -15 86 -75 84 l-45
-2 0 -68z"/>
<path d="M8805 1364 c-9 -9 -14 -23 -11 -31 3 -8 6 -16 6 -18 0 -2 16 -9 35
-15 19 -6 35 -15 35 -20 0 -17 -22 -22 -46 -9 -30 16 -46 2 -20 -17 24 -17 68
-18 84 -2 23 23 13 48 -25 65 -48 19 -51 22 -33 33 8 5 22 5 33 -1 27 -15 43
-6 23 14 -22 22 -60 22 -81 1z"/>
<path d="M5552 528 c-25 -25 -12 -98 18 -98 20 0 30 19 30 59 0 25 -15 51 -30
51 -3 0 -11 -5 -18 -12z"/>
<path d="M5278 529 c-26 -15 -25 -85 1 -99 29 -15 56 -12 74 8 48 53 -14 127
-75 91z m56 -5 c9 -3 16 -13 16 -21 0 -13 -3 -13 -15 -3 -20 17 -45 5 -45 -20
0 -25 25 -37 45 -20 12 10 15 9 15 -4 0 -20 -46 -32 -65 -16 -18 15 -20 61 -3
78 13 13 28 15 52 6z"/>
<path d="M5990 511 c0 -24 13 -33 34 -25 27 10 20 44 -9 44 -18 0 -25 -5 -25
-19z"/>
<path d="M4381 482 c-13 -25 8 -56 35 -50 29 5 27 62 -3 66 -13 2 -26 -4 -32
-16z"/>
<path d="M4514 486 c-11 -28 1 -51 27 -54 29 -3 44 18 34 49 -8 23 -53 26 -61
5z"/>
<path d="M4881 482 c-13 -25 8 -56 35 -50 29 5 27 62 -3 66 -13 2 -26 -4 -32
-16z"/>
<path d="M6315 489 c-4 -5 -4 -21 -1 -35 5 -17 13 -24 30 -24 26 0 40 23 31
51 -7 21 -49 26 -60 8z"/>
<path d="M6455 490 c-4 -6 7 -10 25 -10 18 0 29 4 25 10 -3 6 -15 10 -25 10
-10 0 -22 -4 -25 -10z"/>
<path d="M6455 440 c3 -5 15 -10 25 -10 10 0 22 5 25 10 4 6 -7 10 -25 10 -18
0 -29 -4 -25 -10z"/>
<path d="M7085 490 c-4 -6 7 -10 25 -10 18 0 29 4 25 10 -3 6 -15 10 -25 10
-10 0 -22 -4 -25 -10z"/>
<path d="M7085 440 c3 -5 15 -10 25 -10 10 0 22 5 25 10 4 6 -7 10 -25 10 -18
0 -29 -4 -25 -10z"/>
<path d="M7454 486 c-11 -29 0 -51 26 -51 21 0 25 5 25 30 0 24 -5 31 -23 33
-13 2 -24 -3 -28 -12z"/>
<path d="M7660 490 c0 -5 11 -10 25 -10 14 0 25 5 25 10 0 6 -11 10 -25 10
-14 0 -25 -4 -25 -10z"/>
<path d="M7660 440 c0 -5 11 -10 24 -10 14 0 28 5 31 10 4 6 -7 10 -24 10 -17
0 -31 -4 -31 -10z"/>
<path d="M8265 490 c-4 -6 7 -10 25 -10 18 0 29 4 25 10 -3 6 -15 10 -25 10
-10 0 -22 -4 -25 -10z"/>
<path d="M8260 440 c0 -5 11 -10 24 -10 14 0 28 5 31 10 4 6 -7 10 -24 10 -17
0 -31 -4 -31 -10z"/>
<path d="M8854 486 c-11 -29 0 -51 26 -51 21 0 25 5 25 30 0 24 -5 31 -23 33
-13 2 -24 -3 -28 -12z"/>
<path d="M9240 490 c0 -5 11 -10 25 -10 14 0 25 5 25 10 0 6 -11 10 -25 10
-14 0 -25 -4 -25 -10z"/>
<path d="M9240 440 c0 -5 11 -10 24 -10 14 0 28 5 31 10 4 6 -7 10 -24 10 -17
0 -31 -4 -31 -10z"/>
<path d="M9685 490 c-4 -6 7 -10 24 -10 17 0 31 5 31 10 0 6 -11 10 -24 10
-14 0 -28 -4 -31 -10z"/>
<path d="M9690 440 c0 -5 11 -10 25 -10 14 0 25 5 25 10 0 6 -11 10 -25 10
-14 0 -25 -4 -25 -10z"/>
<path d="M9990 490 c0 -5 14 -10 31 -10 17 0 28 4 24 10 -3 6 -17 10 -31 10
-13 0 -24 -4 -24 -10z"/>
<path d="M9990 440 c0 -5 11 -10 24 -10 14 0 28 5 31 10 4 6 -7 10 -24 10 -17
0 -31 -4 -31 -10z"/>
<path d="M298 10820 c21 -9 22 -13 22 -160 0 -147 -1 -151 -22 -160 -18 -7 -9
-9 37 -9 45 0 56 2 43 10 -14 8 -18 24 -18 74 l0 65 30 0 c24 0 35 -7 48 -31
96 -176 175 -260 242 -259 24 1 24 1 -5 14 -47 20 -119 107 -166 200 l-44 85
27 24 c35 33 45 73 27 106 -23 40 -55 51 -154 50 -64 0 -83 -3 -67 -9z m141
-15 c76 -39 43 -155 -44 -155 l-35 0 0 78 c0 43 3 82 7 85 11 11 42 8 72 -8z"/>
<path d="M1225 10771 c-49 -12 -82 -40 -99 -82 -20 -51 -20 -75 3 -125 22 -49
68 -74 138 -74 83 0 93 6 93 55 0 25 5 45 13 48 6 3 -10 5 -38 5 -27 0 -42 -2
-32 -5 13 -3 17 -15 17 -50 l0 -46 -52 5 c-60 6 -91 34 -108 98 -23 86 25 160
104 160 46 0 55 -5 79 -40 16 -22 17 -23 17 -4 0 11 -6 27 -12 36 -15 19 -81
29 -123 19z"/>
<path d="M1971 10771 c-13 -4 -33 -18 -44 -33 -29 -38 -11 -76 55 -114 59 -34
76 -66 53 -100 -30 -45 -89 -26 -114 36 -10 24 -10 24 -10 -7 -1 -44 21 -63
75 -63 34 0 51 6 69 25 46 45 30 89 -51 141 -39 25 -54 41 -54 57 0 53 69 67
94 20 l15 -28 1 27 c0 15 -3 29 -7 31 -18 10 -60 14 -82 8z"/>
<path d="M583 10759 c14 -9 17 -26 17 -118 0 -94 2 -110 20 -129 24 -25 85
-30 139 -11 24 8 35 8 46 -1 13 -11 15 3 15 113 0 101 3 129 16 141 14 15 11
16 -33 16 -37 -1 -44 -3 -30 -11 14 -9 17 -26 17 -119 l0 -109 -30 -16 c-39
-20 -73 -19 -101 4 -21 17 -24 29 -27 122 -4 90 -2 104 14 116 16 11 12 13
-32 13 -38 -1 -45 -3 -31 -11z"/>
<path d="M866 10744 c-4 -15 -4 -29 -1 -32 3 -3 8 4 12 16 6 23 37 37 70 30
16 -3 18 -15 18 -122 0 -105 -2 -119 -19 -132 -18 -13 -14 -14 40 -13 45 0 54
2 37 9 -22 9 -23 14 -23 135 l0 126 37 -3 c28 -2 41 -9 50 -28 l13 -25 0 33 0
32 -114 0 -114 0 -6 -26z"/>
<path d="M1423 10763 c15 -4 17 -19 17 -133 0 -93 -3 -130 -12 -134 -7 -2 30
-4 82 -3 l94 2 7 34 7 34 -21 -26 c-26 -30 -56 -40 -91 -31 -24 6 -26 10 -26
65 l0 59 39 0 c29 0 41 -5 44 -17 3 -10 5 0 6 22 0 32 -2 36 -10 23 -6 -12
-22 -18 -44 -18 l-35 0 0 60 0 60 34 0 c44 0 66 -9 66 -25 0 -8 4 -16 8 -19 5
-3 6 8 4 25 l-4 29 -92 -1 c-50 -1 -83 -3 -73 -6z"/>
<path d="M1663 10763 c15 -4 17 -19 17 -127 0 -81 -4 -126 -12 -134 -9 -9 -1
-12 38 -12 37 1 45 3 32 11 -14 8 -17 27 -17 130 -1 132 7 147 58 118 47 -26
41 -96 -11 -121 -18 -9 -26 -17 -17 -17 9 -1 28 -24 43 -52 16 -29 38 -54 53
-60 41 -16 48 -10 21 19 -13 15 -35 44 -48 65 l-23 39 27 24 c18 18 26 35 26
59 0 51 -27 65 -125 64 -44 -1 -72 -3 -62 -6z"/>
<path d="M10016 10706 c-22 -8 -55 -30 -74 -49 -112 -112 55 -270 225 -214
l47 16 63 -45 c53 -38 66 -43 83 -34 11 6 20 13 20 15 0 2 -27 23 -60 46 -33
23 -60 45 -60 48 1 3 7 17 15 31 34 59 3 136 -67 173 -50 25 -142 31 -192 13z
m167 -52 c15 -8 35 -30 43 -48 15 -30 15 -36 0 -64 -42 -81 -196 -87 -250 -10
-23 33 -20 64 12 99 44 49 125 58 195 23z"/>
<path d="M8268 10663 c-22 -26 -38 -80 -38 -127 1 -62 47 -153 67 -132 4 3 -1
14 -9 23 -44 50 -47 155 -7 219 22 36 13 47 -13 17z"/>
<path d="M9131 10651 c34 -46 39 -146 10 -201 -24 -46 -25 -50 -11 -50 21 0
52 83 53 140 0 64 -28 133 -57 138 -15 3 -15 -1 5 -27z"/>
<path d="M10980 10575 c0 -89 17 -119 22 -39 3 50 22 72 52 61 12 -5 16 -19
16 -57 0 -27 5 -50 10 -50 6 0 10 22 10 49 0 58 -16 76 -60 67 -28 -5 -30 -3
-30 24 0 17 -4 30 -10 30 -6 0 -10 -35 -10 -85z"/>
<path d="M10338 10639 c-10 -5 -18 -21 -18 -33 0 -18 9 -28 40 -40 28 -11 40
-22 40 -36 0 -23 -38 -28 -58 -8 -6 6 -15 8 -19 4 -10 -10 25 -36 48 -36 25 0
51 29 47 53 -2 13 -15 24 -38 32 -43 14 -56 55 -18 55 13 0 29 -5 36 -12 6 -6
14 -9 17 -6 9 9 -25 38 -43 38 -9 0 -25 -5 -34 -11z"/>
<path d="M11190 10570 c0 -47 4 -80 10 -80 6 0 10 16 10 35 0 23 5 35 13 35 8
0 22 -16 33 -35 10 -19 24 -35 31 -35 9 0 7 9 -6 31 -19 30 -19 31 0 50 10 10
19 25 19 33 0 22 -40 46 -77 46 l-33 0 0 -80z m84 44 c9 -22 -11 -44 -40 -44
-20 0 -24 5 -24 30 0 26 3 30 29 30 17 0 31 -6 35 -16z"/>
<path d="M11340 10586 c0 -56 3 -67 22 -80 57 -40 89 -9 86 82 l-2 67 -3 -60
c-5 -69 -16 -87 -52 -83 -25 3 -26 6 -29 71 -4 86 -22 88 -22 3z"/>
<path d="M11630 10570 c0 -94 18 -108 22 -18 l3 63 40 -63 c22 -34 43 -62 48
-62 4 0 6 37 5 83 l-1 82 -6 -65 -6 -65 -43 63 c-23 34 -47 62 -52 62 -6 0
-10 -35 -10 -80z"/>
<path d="M11860 10570 l0 -80 35 0 c19 0 35 5 35 10 0 6 -11 10 -25 10 -24 0
-25 2 -25 70 0 40 -4 70 -10 70 -6 0 -10 -33 -10 -80z"/>
<path d="M11970 10636 c-21 -27 -8 -58 30 -71 24 -8 35 -18 35 -31 0 -23 -43
-33 -56 -13 -4 8 -12 10 -16 5 -10 -10 25 -36 48 -36 23 0 51 28 47 49 -2 9
-21 25 -42 36 -21 11 -38 23 -37 28 0 4 1 12 1 17 0 6 11 10 25 10 14 0 25 -4
25 -10 0 -5 7 -10 17 -10 14 0 14 2 -2 20 -21 23 -57 26 -75 6z"/>
<path d="M12145 10640 c-3 -5 -14 -33 -24 -62 -11 -29 -22 -61 -26 -70 -4 -10
-3 -18 3 -18 6 0 14 9 17 20 5 15 15 20 42 20 26 0 36 -5 40 -20 5 -20 23 -28
23 -11 0 20 -53 151 -61 151 -4 0 -11 -4 -14 -10z m33 -67 c11 -32 10 -33 -19
-33 -32 0 -34 3 -18 49 13 36 21 32 37 -16z"/>
<path d="M12260 10570 c0 -47 4 -80 10 -80 6 0 10 26 11 58 l0 57 26 -57 c14
-32 28 -58 32 -58 3 0 18 26 33 58 l26 57 1 -57 c1 -32 6 -58 11 -58 6 0 10
33 10 80 0 48 -4 80 -10 80 -6 0 -22 -27 -37 -60 -14 -33 -29 -60 -33 -60 -4
0 -19 27 -34 60 -15 33 -31 60 -37 60 -5 0 -9 -36 -9 -80z"/>
<path d="M12460 10570 c0 -47 4 -80 10 -80 6 0 10 16 10 35 0 30 3 35 24 35
42 0 56 11 56 41 0 33 -23 49 -69 49 l-31 0 0 -80z m84 44 c9 -22 -11 -44 -40
-44 -20 0 -24 5 -24 30 0 26 3 30 29 30 17 0 31 -6 35 -16z"/>
<path d="M2927 10634 c-8 -8 1 -24 14 -24 5 0 9 7 9 15 0 15 -12 20 -23 9z"/>
<path d="M4357 10634 c-8 -8 1 -24 14 -24 5 0 9 7 9 15 0 15 -12 20 -23 9z"/>
<path d="M5127 10613 c-18 -38 -11 -163 9 -163 10 0 14 15 14 59 0 38 5 61 13
65 10 5 10 7 0 12 -15 7 -17 34 -3 34 6 0 10 5 10 10 0 21 -30 9 -43 -17z"/>
<path d="M5737 10634 c-8 -8 1 -24 14 -24 5 0 9 7 9 15 0 15 -12 20 -23 9z"/>
<path d="M6210 10626 c0 -9 7 -16 16 -16 9 0 14 5 12 12 -6 18 -28 21 -28 4z"/>
<path d="M7070 10625 c0 -9 5 -15 11 -13 6 2 11 8 11 13 0 5 -5 11 -11 13 -6
2 -11 -4 -11 -13z"/>
<path d="M7280 10625 c0 -8 7 -15 15 -15 8 0 15 7 15 15 0 8 -7 15 -15 15 -8
0 -15 -7 -15 -15z"/>
<path d="M7777 10633 c-12 -11 -8 -23 8 -23 8 0 15 7 15 15 0 16 -12 20 -23 8z"/>
<path d="M3200 10612 c-32 -26 -22 -68 20 -77 37 -8 61 -31 54 -50 -8 -21 -54
-19 -70 2 -15 21 -27 13 -18 -11 15 -39 100 -32 110 10 8 30 -4 45 -49 60 -20
7 -33 18 -35 31 -4 27 26 38 49 17 23 -21 44 -15 27 8 -21 27 -61 32 -88 10z"/>
<path d="M3580 10540 c0 -73 3 -90 15 -90 10 0 15 10 15 28 l1 27 24 -27 c13
-16 32 -28 41 -28 14 0 10 8 -16 35 l-34 35 34 35 c40 41 20 48 -22 8 l-28
-27 0 47 c0 35 -4 47 -15 47 -12 0 -15 -17 -15 -90z"/>
<path d="M4230 10540 c0 -73 3 -90 15 -90 12 0 15 17 15 90 0 73 -3 90 -15 90
-12 0 -15 -17 -15 -90z"/>
<path d="M4300 10540 c0 -53 4 -90 10 -90 6 0 10 37 10 90 0 53 -4 90 -10 90
-6 0 -10 -37 -10 -90z"/>
<path d="M8460 10612 c-33 -26 -21 -70 20 -79 35 -7 55 -27 46 -48 -7 -19 -52
-20 -60 0 -7 19 -26 20 -26 0 0 -39 82 -47 105 -11 21 32 6 62 -34 71 -40 9
-58 30 -41 50 7 8 18 15 25 15 7 0 18 -7 25 -15 16 -19 30 -19 30 0 0 9 -12
20 -26 25 -34 13 -38 13 -64 -8z"/>
<path d="M2500 10535 l0 -85 40 0 c22 0 40 5 40 10 0 6 -13 10 -30 10 l-30 0
0 75 c0 43 -4 75 -10 75 -6 0 -10 -35 -10 -85z"/>
<path d="M3340 10606 c0 -8 -6 -17 -12 -19 -10 -4 -10 -7 -1 -14 6 -5 13 -33
15 -63 3 -52 5 -55 31 -58 15 -2 27 1 27 7 0 6 -9 11 -20 11 -17 0 -20 7 -20
49 0 43 3 50 23 54 l22 4 -22 8 c-13 4 -23 14 -23 21 0 8 -4 14 -10 14 -5 0
-10 -6 -10 -14z"/>
<path d="M4087 10543 c-15 -43 -27 -81 -27 -85 0 -16 19 -7 25 12 5 15 15 20
45 20 30 0 40 -5 45 -20 6 -19 25 -29 25 -13 0 4 -12 42 -27 85 -36 101 -50
101 -86 1z m56 20 c2 -10 8 -26 12 -35 6 -15 2 -18 -24 -18 -17 0 -31 2 -31 4
0 1 5 17 11 35 12 35 24 40 32 14z"/>
<path d="M5520 10535 c0 -98 18 -116 22 -22 l3 62 29 -63 c16 -34 33 -61 38
-60 4 2 21 30 37 63 l29 60 1 -62 c1 -35 5 -63 11 -63 6 0 10 35 10 85 0 107
-16 112 -55 20 -16 -36 -31 -65 -34 -65 -4 0 -19 29 -35 65 -40 92 -56 87 -56
-20z"/>
<path d="M6280 10606 c0 -8 -6 -17 -12 -19 -10 -4 -10 -7 -1 -14 6 -5 13 -33
15 -63 3 -52 5 -55 31 -58 31 -4 37 13 7 21 -16 4 -20 14 -20 51 0 39 3 46 20
46 11 0 20 5 20 10 0 6 -9 10 -20 10 -11 0 -20 7 -20 15 0 8 -4 15 -10 15 -5
0 -10 -6 -10 -14z"/>
<path d="M6570 10536 c0 -51 4 -86 10 -86 6 0 10 16 10 35 0 32 3 35 29 35 16
0 39 9 52 19 20 16 22 23 14 47 -9 26 -15 29 -63 32 l-52 3 0 -85z m84 58 c24
-23 3 -56 -32 -52 -27 3 -39 25 -28 54 7 19 41 18 60 -2z"/>
<path d="M6979 10603 c-3 -42 4 -119 12 -135 10 -19 49 -25 49 -8 0 6 -7 10
-15 10 -11 0 -15 12 -15 50 0 38 4 50 15 50 8 0 15 5 15 10 0 6 -7 10 -15 10
-8 0 -15 7 -15 15 0 21 -30 19 -31 -2z"/>
<path d="M7690 10606 c0 -8 -6 -17 -12 -19 -10 -4 -10 -7 -1 -14 6 -5 13 -33
15 -63 3 -52 5 -55 31 -58 15 -2 27 1 27 7 0 6 -9 11 -20 11 -17 0 -20 7 -20
49 0 43 3 50 23 54 l22 4 -22 8 c-13 4 -23 14 -23 21 0 8 -4 14 -10 14 -5 0
-10 -6 -10 -14z"/>
<path d="M8340 10535 l0 -85 40 0 c22 0 40 5 40 10 0 6 -13 10 -30 10 l-30 0
0 75 c0 43 -4 75 -10 75 -6 0 -10 -35 -10 -85z"/>
<path d="M8624 10573 c-9 -27 -23 -63 -31 -82 -16 -41 -7 -55 14 -23 11 15 25
22 48 22 23 0 37 -7 48 -22 21 -32 30 -18 14 23 -8 19 -22 55 -31 82 -10 26
-24 47 -31 47 -7 0 -21 -21 -31 -47z m56 -50 c0 -7 -11 -13 -25 -13 -28 0 -30
4 -13 51 l12 34 12 -30 c7 -17 13 -36 14 -42z"/>
<path d="M8760 10535 c0 -50 4 -85 10 -85 6 0 10 28 11 63 l1 62 29 -62 c16
-35 33 -63 37 -63 5 0 20 26 35 58 l25 57 1 -57 c1 -32 6 -58 11 -58 6 0 10
35 10 85 0 49 -4 85 -10 85 -5 0 -24 -30 -41 -67 l-31 -68 -32 67 c-43 93 -56
89 -56 -17z"/>
<path d="M8970 10536 c0 -70 3 -86 15 -86 10 0 15 11 15 35 0 30 3 35 24 35
13 0 34 9 47 19 20 16 22 23 14 47 -9 26 -15 29 -63 32 l-52 3 0 -85z m86 60
c25 -19 8 -50 -30 -54 -24 -3 -26 0 -26 32 0 40 20 48 56 22z"/>
<path d="M10467 10592 c-23 -25 -21 -58 3 -82 24 -24 49 -25 76 -5 17 13 16
14 -20 8 -27 -4 -41 -2 -47 8 -16 25 -10 29 41 29 37 0 50 4 50 14 0 42 -73
62 -103 28z m71 -4 c21 -21 13 -28 -28 -28 -22 0 -40 4 -40 8 0 14 23 32 40
32 9 0 21 -5 28 -12z"/>
<path d="M10605 10586 c-34 -51 19 -117 68 -87 15 10 22 11 25 2 10 -30 22 -5
22 47 l0 58 -50 2 c-43 2 -52 -1 -65 -22z m86 -7 c16 -31 -3 -69 -35 -69 -23
0 -46 24 -46 49 0 16 30 41 50 41 11 0 24 -10 31 -21z"/>
<path d="M10760 10549 c0 -33 4 -59 10 -59 6 0 10 21 10 46 0 32 5 51 17 59
15 11 14 13 -10 13 -26 0 -27 -2 -27 -59z"/>
<path d="M10850 10591 c-17 -32 -12 -69 12 -85 30 -21 51 -20 73 4 19 20 8 29
-12 9 -6 -6 -21 -9 -34 -7 -20 2 -25 10 -27 40 -3 33 0 38 23 44 15 4 31 2 38
-5 17 -17 31 -13 17 4 -18 22 -77 19 -90 -4z"/>
<path d="M2620 10570 c-42 -42 -14 -120 43 -120 38 0 50 7 66 37 17 33 14 51
-14 78 -29 30 -68 32 -95 5z m78 -12 c7 -7 12 -24 12 -38 0 -32 -17 -50 -47
-50 -38 0 -56 55 -27 84 18 19 45 21 62 4z"/>
<path d="M2770 10531 c0 -70 10 -81 73 -79 l47 2 0 68 c0 39 -4 68 -10 68 -5
0 -10 -19 -10 -43 0 -54 -18 -80 -51 -75 -22 3 -24 8 -27 61 -4 75 -22 74 -22
-2z"/>
<path d="M2930 10520 c0 -40 4 -70 10 -70 6 0 10 30 10 70 0 40 -4 70 -10 70
-6 0 -10 -30 -10 -70z"/>
<path d="M2996 10571 c-22 -24 -11 -49 28 -59 40 -10 49 -42 12 -42 -14 0 -26
5 -26 10 0 6 -7 10 -15 10 -13 0 -14 -4 -5 -20 15 -28 75 -28 90 0 14 26 6 39
-36 56 -19 8 -34 19 -34 24 0 17 29 23 45 10 20 -17 32 -5 15 15 -17 21 -53
19 -74 -4z"/>
<path d="M3442 10574 c-16 -11 -22 -25 -22 -53 0 -46 24 -71 67 -71 38 0 63
27 63 68 0 60 -59 91 -108 56z m69 -14 c22 -12 26 -59 7 -78 -7 -7 -21 -12
-33 -12 -29 0 -45 19 -45 52 0 39 34 57 71 38z"/>
<path d="M3733 10575 c-38 -26 -37 -92 1 -117 19 -13 73 -9 86 7 16 19 5 34
-12 17 -26 -26 -78 -10 -78 24 0 2 25 4 55 4 62 0 68 10 34 54 -23 29 -54 33
-86 11z m65 -17 c21 -21 13 -28 -28 -28 -22 0 -40 4 -40 8 0 14 23 32 40 32 9
0 21 -5 28 -12z"/>
<path d="M3875 10574 c-9 -9 -14 -23 -11 -31 3 -8 6 -16 6 -18 0 -2 16 -9 35
-15 19 -6 35 -18 35 -26 0 -17 -41 -19 -58 -2 -17 17 -28 2 -12 -17 18 -22 77
-20 89 4 13 23 -3 46 -41 60 -16 6 -28 17 -28 26 0 18 31 20 48 3 17 -17 28
-2 12 17 -16 20 -54 19 -75 -1z"/>
<path d="M4360 10520 c0 -40 4 -70 10 -70 6 0 10 30 10 70 0 40 -4 70 -10 70
-6 0 -10 -30 -10 -70z"/>
<path d="M4430 10570 c-24 -24 -26 -67 -4 -98 16 -24 53 -29 85 -12 13 7 19 7
19 0 0 -5 5 -10 10 -10 6 0 10 30 10 70 0 63 -11 90 -23 58 -4 -10 -7 -10 -18
0 -19 18 -56 15 -79 -8z m86 -28 c16 -32 6 -61 -22 -68 -34 -9 -52 1 -60 31
-14 55 57 87 82 37z"/>
<path d="M4590 10520 c0 -40 4 -70 10 -70 6 0 10 22 10 48 0 51 12 72 42 72
23 0 38 -30 38 -79 0 -23 5 -41 10 -41 6 0 10 24 10 53 0 40 -5 58 -18 70 -22
20 -53 22 -70 5 -9 -9 -12 -9 -12 0 0 7 -4 12 -10 12 -6 0 -10 -30 -10 -70z"/>
<path d="M4760 10570 c-24 -24 -26 -67 -4 -98 18 -26 75 -30 94 -7 16 20 5 32
-14 16 -19 -16 -56 -11 -69 10 -5 9 -7 28 -3 42 8 34 53 48 72 22 7 -9 18 -15
25 -13 21 7 -28 48 -56 48 -14 0 -34 -9 -45 -20z"/>
<path d="M4910 10570 c-43 -43 -14 -120 45 -120 35 0 79 30 55 38 -6 2 -17 -1
-23 -7 -18 -18 -55 -13 -67 9 -10 19 -8 20 45 20 52 0 55 1 55 24 0 50 -73 73
-110 36z m80 -15 c18 -22 9 -27 -41 -23 -41 3 -42 4 -25 21 22 21 49 22 66 2z"/>
<path d="M5223 10575 c-38 -26 -37 -92 1 -117 24 -16 75 -8 90 14 48 69 -24
150 -91 103z m71 -21 c29 -29 11 -84 -27 -84 -30 0 -47 18 -47 50 0 47 42 66
74 34z"/>
<path d="M5360 10520 c0 -82 15 -94 22 -18 3 29 9 54 14 55 5 2 16 8 24 13 22
14 5 23 -19 10 -14 -7 -21 -7 -21 0 0 5 -4 10 -10 10 -6 0 -10 -30 -10 -70z"/>
<path d="M5740 10520 c0 -40 4 -70 10 -70 6 0 10 30 10 70 0 40 -4 70 -10 70
-6 0 -10 -30 -10 -70z"/>
<path d="M5800 10520 c0 -81 17 -95 22 -19 3 59 25 82 56 63 12 -8 18 -27 20
-63 4 -68 22 -66 22 2 0 40 -5 58 -18 70 -22 20 -53 22 -70 5 -9 -9 -12 -9
-12 0 0 7 -4 12 -10 12 -6 0 -10 -30 -10 -70z"/>
<path d="M5976 10569 c-50 -40 -21 -119 44 -119 64 0 91 70 45 115 -30 30 -54
31 -89 4z m79 -23 c25 -37 3 -76 -43 -76 -34 0 -50 42 -28 75 21 31 51 32 71
1z"/>
<path d="M6120 10520 c0 -40 4 -70 10 -70 6 0 10 22 10 49 0 39 4 51 23 64 12
8 19 18 15 22 -4 4 -14 2 -23 -5 -10 -8 -15 -9 -15 -1 0 6 -4 11 -10 11 -6 0
-10 -30 -10 -70z"/>
<path d="M6210 10520 c0 -40 4 -70 10 -70 6 0 10 30 10 70 0 40 -4 70 -10 70
-6 0 -10 -30 -10 -70z"/>
<path d="M6355 10573 c46 -114 48 -124 36 -150 -12 -27 -7 -44 8 -27 15 15 82
186 76 192 -9 9 -20 -9 -40 -63 -15 -41 -20 -46 -26 -30 -5 11 -15 37 -23 58
-8 20 -20 37 -27 37 -7 0 -8 -7 -4 -17z"/>
<path d="M6730 10570 c-24 -24 -26 -67 -5 -97 13 -19 24 -22 70 -21 l55 2 0
68 c0 67 -5 79 -27 57 -8 -8 -13 -8 -17 0 -11 18 -54 13 -76 -9z m78 -12 c17
-17 15 -63 -2 -78 -43 -35 -99 28 -61 70 20 23 45 26 63 8z"/>
<path d="M6890 10520 c0 -40 4 -70 10 -70 6 0 10 22 10 49 0 39 4 51 23 64 12
8 19 18 15 22 -4 4 -14 2 -23 -5 -10 -8 -15 -9 -15 -1 0 6 -4 11 -10 11 -6 0
-10 -30 -10 -70z"/>
<path d="M7070 10520 c0 -40 4 -70 10 -70 6 0 10 30 10 70 0 40 -4 70 -10 70
-6 0 -10 -30 -10 -70z"/>
<path d="M7145 10565 c-28 -27 -31 -45 -14 -78 15 -29 28 -37 60 -37 29 0 68
25 56 36 -4 4 -13 2 -19 -4 -17 -17 -65 -15 -72 4 -24 62 21 108 66 67 25 -22
36 -8 13 17 -24 27 -61 25 -90 -5z"/>
<path d="M7286 10583 c-3 -3 -6 -35 -6 -70 0 -49 3 -63 15 -63 12 0 15 14 15
64 0 60 -8 84 -24 69z"/>
<path d="M7350 10490 c0 -60 4 -100 10 -100 6 0 10 15 10 34 0 34 1 35 35 29
26 -4 41 -1 55 12 26 24 26 79 0 105 -22 22 -42 25 -71 10 -13 -7 -19 -7 -19
0 0 5 -4 10 -10 10 -6 0 -10 -40 -10 -100z m91 70 c22 -12 26 -59 7 -78 -7 -7
-21 -12 -33 -12 -29 0 -45 19 -45 52 0 39 34 57 71 38z"/>
<path d="M7532 10574 c-28 -20 -31 -83 -4 -107 22 -20 63 -22 80 -5 9 9 12 9
12 0 0 -7 5 -12 10 -12 6 0 10 30 10 70 0 40 -4 70 -10 70 -5 0 -10 -5 -10
-10 0 -7 -6 -7 -19 0 -27 14 -43 13 -69 -6z m69 -14 c22 -12 26 -59 7 -78 -7
-7 -21 -12 -33 -12 -29 0 -45 19 -45 52 0 39 34 57 71 38z"/>
<path d="M7776 10583 c-3 -3 -6 -35 -6 -70 0 -49 3 -63 15 -63 12 0 15 14 15
64 0 60 -8 84 -24 69z"/>
<path d="M7850 10570 c-26 -26 -26 -81 -2 -103 25 -22 75 -21 95 1 25 28 22
87 -5 106 -31 22 -64 20 -88 -4z m78 -12 c7 -7 12 -24 12 -38 0 -31 -17 -50
-45 -50 -27 0 -45 18 -45 46 0 43 50 70 78 42z"/>
<path d="M8000 10520 c0 -40 4 -70 10 -70 6 0 10 22 10 48 0 51 12 72 42 72
23 0 38 -30 38 -79 0 -23 5 -41 10 -41 16 0 12 93 -6 118 -17 24 -53 29 -72
10 -9 -9 -12 -9 -12 0 0 7 -4 12 -10 12 -6 0 -10 -30 -10 -70z"/>
<path d="M11523 10573 c15 -2 37 -2 50 0 12 2 0 4 -28 4 -27 0 -38 -2 -22 -4z"/>
<path d="M812 10315 c0 -16 2 -22 5 -12 2 9 2 23 0 30 -3 6 -5 -1 -5 -18z"/>
<path d="M1112 10320 c0 -14 2 -19 5 -12 2 6 2 18 0 25 -3 6 -5 1 -5 -13z"/>
<path d="M1182 10310 c0 -19 2 -27 5 -17 2 9 2 25 0 35 -3 9 -5 1 -5 -18z"/>
<path d="M1332 10310 c0 -19 2 -27 5 -17 2 9 2 25 0 35 -3 9 -5 1 -5 -18z"/>
<path d="M2072 10310 c0 -19 2 -27 5 -17 2 9 2 25 0 35 -3 9 -5 1 -5 -18z"/>
<path d="M1461 10294 c0 -11 3 -14 6 -6 3 7 2 16 -1 19 -3 4 -6 -2 -5 -13z"/>
</g>
</svg>
